<?xml version="1.0" encoding="UTF-8"?>
<!DOCTYPE svg PUBLIC "-//W3C//DTD SVG 1.1//EN" "http://www.w3.org/Graphics/SVG/1.1/DTD/svg11.dtd">
<svg version="1.1" xmlns="http://www.w3.org/2000/svg" xmlns:xlink="http://www.w3.org/1999/xlink" x="0" y="0" width="380" height="340" viewBox="0, 0, 380, 340">
  <g id="Layer_3">
    <g>
      <path d="M0.75,112.87 L3.288,113.116 L3.288,97.325 L13.532,97.325 L13.532,84.692 L18.654,84.692 L18.654,68.901 L26.849,68.901 L26.849,127.328 L35.045,127.328 L35.045,103.641 L49.386,103.641 L49.386,56.268 L64.753,56.268 L64.753,5.737 L81.144,5.737 L81.144,43.636 L89.339,43.636 L88.314,102.062 L101.632,102.062 L101.632,64.164 L108.803,64.164 L108.803,73.638 L116.998,73.638 L116.998,89.429 L131.34,89.429 L131.34,70.48 L143.633,81.534 L143.633,103.641 L145.682,103.641 L145.682,59.427 L147.731,54.689 L147.731,31.003 L149.78,31.003 L149.78,54.689 L157.975,54.689 L157.975,59.427 L163.097,59.427 L163.097,73.638 L168.219,73.638 L168.219,125.749 L175.39,125.749 L175.39,102.062 L180.512,102.062 L180.512,53.11 L190.757,32.582 L199.976,53.11 L199.951,71.912 L214.31,72.514 L214.318,91.009 L220.465,91.009 L220.465,48.373 L220.465,18.37 L225.587,18.37 L225.587,1 L227.636,1 L227.636,18.37 L232.758,18.37 L232.758,37.319 L237.88,45.215 L237.88,56.268 L249.149,56.268 L249.17,73.974 L259.393,89.429 L259.393,73.638 L266.564,65.743 L266.564,59.427 L269.637,54.689 L280.906,54.689 L283.979,59.427 L283.979,75.218 L289.101,75.218 L289.101,43.636 L308.565,43.636 L308.565,95.746 L313.687,95.746 L313.687,59.427 L315.736,54.689 L329.053,54.689 L331.102,59.427 L331.102,76.797 L338.273,76.797 L338.273,34.161 L346.469,34.161 L346.469,24.686 L355.688,24.686 L355.688,15.212 L364.908,15.212 L363.884,59.427 L379.25,59.427 L379.25,339 L1.56,339 z" fill="#FFA500" fill-opacity="0.25"/>
      <path d="M0.75,214.343 L6.436,214.343 L6.436,194.916 L12.934,194.916 L12.934,160.919 L18.619,160.919 L18.619,167.395 L24.305,167.395 L24.305,173.871 L28.366,173.871 L28.366,209.487 L33.239,209.487 L33.239,193.298 L43.798,193.298 L43.798,225.676 L47.047,225.676 L47.047,183.584 L58.418,183.584 L58.418,207.868 L62.48,207.868 L62.48,191.679 L71.414,191.679 L77.1,215.962 L78.724,215.962 L78.724,209.487 L81.161,209.487 L81.161,193.298 L89.283,193.298 L89.283,180.346 L93.344,180.346 L93.344,164.157 L99.842,164.157 L99.842,224.057 L106.34,224.057 L138.838,161.923 L151.013,178.727 L164.821,159.3 L164.821,169.014 L171.319,169.014 L171.319,185.203 L182.69,185.203 L182.69,165.776 L192.437,177.108 L192.437,199.773 L194.061,199.773 L194.061,154.444 L195.686,149.587 L195.686,125.303 L197.31,125.303 L197.31,149.587 L203.808,149.587 L203.808,154.444 L207.869,154.444 L207.869,169.014 L211.93,169.014 L211.93,222.438 L217.616,222.438 L217.616,198.154 L221.677,198.154 L221.677,147.968 L229.799,126.922 L237.109,147.968 L237.089,167.244 L248.474,167.861 L248.481,186.822 L253.354,186.822 L253.354,143.111 L253.354,112.352 L257.415,112.352 L257.415,94.544 L259.04,94.544 L259.04,112.352 L263.101,112.352 L263.101,131.779 L267.162,139.873 L267.162,151.206 L276.097,151.206 L276.114,169.358 L284.219,185.203 L284.219,169.014 L289.905,160.919 L289.905,154.444 L292.341,149.587 L301.276,149.587 L303.712,154.444 L303.712,170.633 L307.774,170.633 L307.774,138.254 L323.206,138.254 L323.206,191.679 L327.267,191.679 L327.267,154.444 L328.892,149.587 L339.451,149.587 L341.075,154.444 L341.075,172.252 L346.761,172.252 L346.761,128.541 L353.259,128.541 L353.259,118.827 L360.569,118.827 L360.569,109.114 L367.879,109.114 L367.066,154.444 L379.25,154.444 L379.25,339 L0.75,339 z" fill="#FFA500" fill-opacity="0.35"/>
      <path d="M88.25,253.544 L97.25,253.544 L97.25,253.544 L88.25,253.544 z" fill="#000000"/>
    </g>
  </g>
</svg>
