<?xml version="1.0" encoding="UTF-8"?>
<!DOCTYPE svg PUBLIC "-//W3C//DTD SVG 1.1//EN" "http://www.w3.org/Graphics/SVG/1.1/DTD/svg11.dtd">
<svg version="1.1" xmlns="http://www.w3.org/2000/svg" xmlns:xlink="http://www.w3.org/1999/xlink" x="0" y="0" width="350" height="320" viewBox="0, 0, 350, 320">
  <defs>
    <linearGradient id="Gradient_1" gradientUnits="userSpaceOnUse" x1="144.666" y1="158.79" x2="145.389" y2="158.79">
      <stop offset="0" stop-color="#EEEEEE"/>
      <stop offset="1" stop-color="#444444"/>
    </linearGradient>
    <clipPath id="Clip_1">
      <path d="M145.027,156.86 C145.227,156.86 145.389,157.043 145.389,157.27 L145.389,160.31 C145.389,160.536 145.227,160.719 145.027,160.719 C144.828,160.719 144.666,160.536 144.666,160.31 L144.666,157.27 C144.666,157.043 144.828,156.86 145.027,156.86 z"/>
    </clipPath>
    <filter id="InnerShadow_2">
      <feGaussianBlur in="SourceAlpha" stdDeviation="0"/>
      <feOffset dx="1" dy="0" result="offsetblur"/>
      <feFlood flood-color="#909090"/>
      <feComposite in2="offsetblur" operator="in"/>
    </filter>
    <clipPath id="Clip_3">
      <path d="M145.027,156.86 C145.227,156.86 145.389,157.043 145.389,157.27 L145.389,160.31 C145.389,160.536 145.227,160.719 145.027,160.719 C144.828,160.719 144.666,160.536 144.666,160.31 L144.666,157.27 C144.666,157.043 144.828,156.86 145.027,156.86 z"/>
    </clipPath>
    <filter id="InnerShadow_4">
      <feGaussianBlur in="SourceAlpha" stdDeviation="1"/>
      <feOffset dx="0" dy="2" result="offsetblur"/>
      <feFlood flood-color="#050505"/>
      <feComposite in2="offsetblur" operator="in"/>
    </filter>
    <clipPath id="Clip_5">
      <path d="M145.027,156.86 C145.227,156.86 145.389,157.043 145.389,157.27 L145.389,160.31 C145.389,160.536 145.227,160.719 145.027,160.719 C144.828,160.719 144.666,160.536 144.666,160.31 L144.666,157.27 C144.666,157.043 144.828,156.86 145.027,156.86 z"/>
    </clipPath>
    <filter id="InnerShadow_6">
      <feGaussianBlur in="SourceAlpha" stdDeviation="1"/>
      <feOffset dx="0" dy="-2" result="offsetblur"/>
      <feFlood flood-color="#050505"/>
      <feComposite in2="offsetblur" operator="in"/>
    </filter>
    <linearGradient id="Gradient_2" gradientUnits="userSpaceOnUse" x1="144.666" y1="168.074" x2="145.389" y2="168.074">
      <stop offset="0" stop-color="#EEEEEE"/>
      <stop offset="1" stop-color="#444444"/>
    </linearGradient>
    <clipPath id="Clip_7">
      <path d="M145.027,164.336 C145.227,164.336 145.389,164.691 145.389,165.129 L145.389,171.019 C145.389,171.457 145.227,171.812 145.027,171.812 C144.828,171.812 144.666,171.457 144.666,171.019 L144.666,165.129 C144.666,164.691 144.828,164.336 145.027,164.336 z"/>
    </clipPath>
    <filter id="InnerShadow_8">
      <feGaussianBlur in="SourceAlpha" stdDeviation="0"/>
      <feOffset dx="1" dy="0" result="offsetblur"/>
      <feFlood flood-color="#909090"/>
      <feComposite in2="offsetblur" operator="in"/>
    </filter>
    <clipPath id="Clip_9">
      <path d="M145.027,164.336 C145.227,164.336 145.389,164.691 145.389,165.129 L145.389,171.019 C145.389,171.457 145.227,171.812 145.027,171.812 C144.828,171.812 144.666,171.457 144.666,171.019 L144.666,165.129 C144.666,164.691 144.828,164.336 145.027,164.336 z"/>
    </clipPath>
    <filter id="InnerShadow_10">
      <feGaussianBlur in="SourceAlpha" stdDeviation="1"/>
      <feOffset dx="0" dy="2" result="offsetblur"/>
      <feFlood flood-color="#050505"/>
      <feComposite in2="offsetblur" operator="in"/>
    </filter>
    <clipPath id="Clip_11">
      <path d="M145.027,164.336 C145.227,164.336 145.389,164.691 145.389,165.129 L145.389,171.019 C145.389,171.457 145.227,171.812 145.027,171.812 C144.828,171.812 144.666,171.457 144.666,171.019 L144.666,165.129 C144.666,164.691 144.828,164.336 145.027,164.336 z"/>
    </clipPath>
    <filter id="InnerShadow_12">
      <feGaussianBlur in="SourceAlpha" stdDeviation="1"/>
      <feOffset dx="0" dy="-2" result="offsetblur"/>
      <feFlood flood-color="#050505"/>
      <feComposite in2="offsetblur" operator="in"/>
    </filter>
    <clipPath id="Clip_13">
      <path d="M196.877,167.11 C197.077,167.11 197.239,167.285 197.239,167.5 L197.239,178.174 C197.239,178.39 197.077,178.565 196.877,178.565 C196.678,178.565 196.516,178.39 196.516,178.174 L196.516,167.5 C196.516,167.285 196.678,167.11 196.877,167.11 z"/>
    </clipPath>
    <filter id="InnerShadow_14">
      <feGaussianBlur in="SourceAlpha" stdDeviation="0"/>
      <feOffset dx="-1" dy="0" result="offsetblur"/>
      <feFlood flood-color="#909090"/>
      <feComposite in2="offsetblur" operator="in"/>
    </filter>
    <clipPath id="Clip_15">
      <path d="M196.877,167.11 C197.077,167.11 197.239,167.285 197.239,167.5 L197.239,178.174 C197.239,178.39 197.077,178.565 196.877,178.565 C196.678,178.565 196.516,178.39 196.516,178.174 L196.516,167.5 C196.516,167.285 196.678,167.11 196.877,167.11 z"/>
    </clipPath>
    <filter id="InnerShadow_16">
      <feGaussianBlur in="SourceAlpha" stdDeviation="1"/>
      <feOffset dx="0" dy="2" result="offsetblur"/>
      <feFlood flood-color="#050505"/>
      <feComposite in2="offsetblur" operator="in"/>
    </filter>
    <clipPath id="Clip_17">
      <path d="M196.877,167.11 C197.077,167.11 197.239,167.285 197.239,167.5 L197.239,178.174 C197.239,178.39 197.077,178.565 196.877,178.565 C196.678,178.565 196.516,178.39 196.516,178.174 L196.516,167.5 C196.516,167.285 196.678,167.11 196.877,167.11 z"/>
    </clipPath>
    <filter id="InnerShadow_18">
      <feGaussianBlur in="SourceAlpha" stdDeviation="1"/>
      <feOffset dx="0" dy="-2" result="offsetblur"/>
      <feFlood flood-color="#050505"/>
      <feComposite in2="offsetblur" operator="in"/>
    </filter>
    <linearGradient id="Gradient_3" gradientUnits="userSpaceOnUse" x1="144.666" y1="177.48" x2="145.389" y2="177.48">
      <stop offset="0" stop-color="#EEEEEE"/>
      <stop offset="1" stop-color="#444444"/>
    </linearGradient>
    <clipPath id="Clip_19">
      <path d="M145.027,173.742 C145.227,173.742 145.389,174.097 145.389,174.535 L145.389,180.425 C145.389,180.863 145.227,181.218 145.027,181.218 C144.828,181.218 144.666,180.863 144.666,180.425 L144.666,174.535 C144.666,174.097 144.828,173.742 145.027,173.742 z"/>
    </clipPath>
    <filter id="InnerShadow_20">
      <feGaussianBlur in="SourceAlpha" stdDeviation="0"/>
      <feOffset dx="1" dy="0" result="offsetblur"/>
      <feFlood flood-color="#909090"/>
      <feComposite in2="offsetblur" operator="in"/>
    </filter>
    <clipPath id="Clip_21">
      <path d="M145.027,173.742 C145.227,173.742 145.389,174.097 145.389,174.535 L145.389,180.425 C145.389,180.863 145.227,181.218 145.027,181.218 C144.828,181.218 144.666,180.863 144.666,180.425 L144.666,174.535 C144.666,174.097 144.828,173.742 145.027,173.742 z"/>
    </clipPath>
    <filter id="InnerShadow_22">
      <feGaussianBlur in="SourceAlpha" stdDeviation="1"/>
      <feOffset dx="0" dy="2" result="offsetblur"/>
      <feFlood flood-color="#050505"/>
      <feComposite in2="offsetblur" operator="in"/>
    </filter>
    <clipPath id="Clip_23">
      <path d="M145.027,173.742 C145.227,173.742 145.389,174.097 145.389,174.535 L145.389,180.425 C145.389,180.863 145.227,181.218 145.027,181.218 C144.828,181.218 144.666,180.863 144.666,180.425 L144.666,174.535 C144.666,174.097 144.828,173.742 145.027,173.742 z"/>
    </clipPath>
    <filter id="InnerShadow_24">
      <feGaussianBlur in="SourceAlpha" stdDeviation="1"/>
      <feOffset dx="0" dy="-2" result="offsetblur"/>
      <feFlood flood-color="#050505"/>
      <feComposite in2="offsetblur" operator="in"/>
    </filter>
    <clipPath id="Clip_25">
      <path d="M184.532,142.511 C191.35,142.511 196.877,146.801 196.877,152.093 L196.877,237.594 C196.877,242.886 191.35,247.175 184.532,247.175 L157.373,247.175 C150.555,247.175 145.027,242.886 145.027,237.594 L145.027,152.093 C145.027,146.801 150.555,142.511 157.373,142.511 L184.532,142.511 z"/>
    </clipPath>
    <filter id="InnerShadow_26">
      <feGaussianBlur in="SourceAlpha" stdDeviation="2.5"/>
      <feOffset dx="0" dy="15" result="offsetblur"/>
      <feFlood flood-color="#444444"/>
      <feComposite in2="offsetblur" operator="in"/>
    </filter>
    <clipPath id="Clip_27">
      <path d="M184.532,142.511 C191.35,142.511 196.877,146.801 196.877,152.093 L196.877,237.594 C196.877,242.886 191.35,247.175 184.532,247.175 L157.373,247.175 C150.555,247.175 145.027,242.886 145.027,237.594 L145.027,152.093 C145.027,146.801 150.555,142.511 157.373,142.511 L184.532,142.511 z"/>
    </clipPath>
    <filter id="InnerShadow_28">
      <feGaussianBlur in="SourceAlpha" stdDeviation="0.5"/>
      <feOffset dx="0" dy="6" result="offsetblur"/>
      <feFlood flood-color="#FBFBFB"/>
      <feComposite in2="offsetblur" operator="in"/>
    </filter>
    <clipPath id="Clip_29">
      <path d="M184.532,142.511 C191.35,142.511 196.877,146.801 196.877,152.093 L196.877,237.594 C196.877,242.886 191.35,247.175 184.532,247.175 L157.373,247.175 C150.555,247.175 145.027,242.886 145.027,237.594 L145.027,152.093 C145.027,146.801 150.555,142.511 157.373,142.511 L184.532,142.511 z"/>
    </clipPath>
    <filter id="InnerShadow_30">
      <feGaussianBlur in="SourceAlpha" stdDeviation="2.5"/>
      <feOffset dx="0" dy="-15" result="offsetblur"/>
      <feFlood flood-color="#444444"/>
      <feComposite in2="offsetblur" operator="in"/>
    </filter>
    <clipPath id="Clip_31">
      <path d="M184.532,142.511 C191.35,142.511 196.877,146.801 196.877,152.093 L196.877,237.594 C196.877,242.886 191.35,247.175 184.532,247.175 L157.373,247.175 C150.555,247.175 145.027,242.886 145.027,237.594 L145.027,152.093 C145.027,146.801 150.555,142.511 157.373,142.511 L184.532,142.511 z"/>
    </clipPath>
    <filter id="InnerShadow_32">
      <feGaussianBlur in="SourceAlpha" stdDeviation="0.5"/>
      <feOffset dx="0" dy="-6" result="offsetblur"/>
      <feFlood flood-color="#FBFBFB"/>
      <feComposite in2="offsetblur" operator="in"/>
    </filter>
    <linearGradient id="Gradient_4" gradientUnits="userSpaceOnUse" x1="145.871" y1="194.843" x2="196.033" y2="194.843">
      <stop offset="0" stop-color="#2B2B2B"/>
      <stop offset="0.056" stop-color="#1B1B02"/>
      <stop offset="0.856" stop-color="#1B1B02"/>
      <stop offset="1" stop-color="#414141"/>
    </linearGradient>
    <linearGradient id="Gradient_5" gradientUnits="userSpaceOnUse" x1="196.033" y1="236.866" x2="196.877" y2="236.866">
      <stop offset="0" stop-color="#BABBBD"/>
      <stop offset="1" stop-color="#535355"/>
    </linearGradient>
    <clipPath id="Clip_33">
      <path d="M196.877,236.564 L196.877,237.167 L196.033,237.167 L196.033,236.564 L196.877,236.564 z"/>
    </clipPath>
    <filter id="InnerShadow_34">
      <feGaussianBlur in="SourceAlpha" stdDeviation="0"/>
      <feOffset dx="-1" dy="0" result="offsetblur"/>
      <feFlood flood-color="#000000"/>
      <feComposite in2="offsetblur" operator="in"/>
    </filter>
    <linearGradient id="Gradient_6" gradientUnits="userSpaceOnUse" x1="170.952" y1="147.214" x2="170.952" y2="146.249">
      <stop offset="0" stop-color="#323232"/>
      <stop offset="1" stop-color="#101010"/>
    </linearGradient>
    <linearGradient id="Gradient_7" gradientUnits="userSpaceOnUse" x1="177.102" y1="147.455" x2="177.102" y2="146.008">
      <stop offset="0" stop-color="#323232"/>
      <stop offset="1" stop-color="#101010"/>
    </linearGradient>
    <filter id="Shadow_35">
      <feGaussianBlur in="SourceAlpha" stdDeviation="0.5"/>
      <feOffset dx="0.5" dy="0.5" result="offsetblur"/>
      <feFlood flood-color="#2878A0"/>
      <feComposite in2="offsetblur" operator="in"/>
    </filter>
  </defs>
  <g id="Nombre">
    <g>
      <g>
        <path d="M258.701,74.234 C256.045,74.234 234.558,74.234 234.558,74.234 C234.558,74.234 224.901,74.234 224.901,83.891 C224.901,91.134 224.901,189.453 224.901,189.453 L249.044,189.453 C249.044,189.453 249.044,111.523 249.044,100.791 C249.044,87.563 250.89,86.305 258.701,86.305 C261.825,86.305 270.772,86.305 273.187,86.305 C273.187,79.062 270.772,74.234 258.701,74.234 z" fill="#017DFF" fill-opacity="0.35"/>
        <path d="M258.701,73.234 C270.118,73.234 274.187,77.303 274.187,86.305 C274.187,86.858 273.739,87.305 273.187,87.305 L258.701,87.305 C251.059,87.305 250.044,88.694 250.044,100.791 L250.044,189.453 C250.044,190.005 249.596,190.453 249.044,190.453 L224.901,190.453 C224.348,190.453 223.901,190.005 223.901,189.453 L223.901,83.891 C223.901,79.273 225.937,76.219 229.282,74.547 C230.435,73.97 231.661,73.602 232.885,73.398 C233.622,73.275 234.204,73.234 234.558,73.234 L258.701,73.234 z M258.701,74.234 C256.045,74.234 234.558,74.234 234.558,74.234 C234.558,74.234 224.901,74.234 224.901,83.891 C224.901,91.134 224.901,189.453 224.901,189.453 L249.044,189.453 C249.044,189.453 249.044,111.523 249.044,100.791 C249.044,87.563 250.89,86.305 258.701,86.305 C261.825,86.305 270.772,86.305 273.187,86.305 C273.187,79.062 270.772,74.234 258.701,74.234 z" fill="#A2CDFD"/>
      </g>
      <g>
        <path d="M136.737,35.605 L187.521,53.456 L187.521,182.877 L136.737,182.877 z" fill="#017DFF" fill-opacity="0.25"/>
        <path d="M136.587,34.615 L137.069,34.661 L187.852,52.513 C188.253,52.653 188.521,53.032 188.521,53.456 L188.521,182.877 C188.521,183.429 188.073,183.877 187.521,183.877 L136.737,183.877 C136.185,183.877 135.737,183.429 135.737,182.877 L135.737,35.605 C135.926,34.844 135.722,35.228 136.587,34.615 z M136.737,35.605 L136.737,182.877 L187.521,182.877 L187.521,53.456 L136.737,35.605 z" fill="#BBD8FC"/>
      </g>
      <path d="M143.342,65.688 L180.209,65.688 C182.754,65.688 184.817,66.834 184.817,68.248 L184.817,68.248 C184.817,69.662 182.754,70.808 180.209,70.808 L143.342,70.808 C140.797,70.808 138.733,69.662 138.733,68.248 L138.733,68.248 C138.733,66.834 140.797,65.688 143.342,65.688 z" fill="#FFFFFF"/>
      <path d="M143.342,75.929 L180.209,75.929 C182.754,75.929 184.817,77.075 184.817,78.489 L184.817,78.489 C184.817,79.903 182.754,81.049 180.209,81.049 L143.342,81.049 C140.797,81.049 138.733,79.903 138.733,78.489 L138.733,78.489 C138.733,77.075 140.797,75.929 143.342,75.929 z" fill="#FFFFFF"/>
      <path d="M143.342,86.17 L180.209,86.17 C182.754,86.17 184.817,87.316 184.817,88.73 L184.817,88.73 C184.817,90.144 182.754,91.29 180.209,91.29 L143.342,91.29 C140.797,91.29 138.733,90.144 138.733,88.73 L138.733,88.73 C138.733,87.316 140.797,86.17 143.342,86.17 z" fill="#FFFFFF"/>
      <path d="M143.342,96.411 L180.209,96.411 C182.754,96.411 184.817,97.557 184.817,98.971 L184.817,98.971 C184.817,100.385 182.754,101.531 180.209,101.531 L143.342,101.531 C140.797,101.531 138.733,100.385 138.733,98.971 L138.733,98.971 C138.733,97.557 140.797,96.411 143.342,96.411 z" fill="#FFFFFF"/>
      <path d="M143.342,106.652 L180.209,106.652 C182.754,106.652 184.817,107.798 184.817,109.212 L184.817,109.212 C184.817,110.626 182.754,111.772 180.209,111.772 L143.342,111.772 C140.797,111.772 138.733,110.626 138.733,109.212 L138.733,109.212 C138.733,107.798 140.797,106.652 143.342,106.652 z" fill="#FFFFFF"/>
      <path d="M143.342,116.892 L180.209,116.892 C182.754,116.892 184.817,118.039 184.817,119.453 L184.817,119.453 C184.817,120.867 182.754,122.013 180.209,122.013 L143.342,122.013 C140.797,122.013 138.733,120.867 138.733,119.453 L138.733,119.453 C138.733,118.039 140.797,116.892 143.342,116.892 z" fill="#FFFFFF"/>
      <g>
        <path d="M195.929,79.062 L217.658,79.062 L217.658,182.877 L195.929,182.877 z" fill="#017DFF" fill-opacity="0.45"/>
        <path d="M217.658,78.062 C218.21,78.062 218.658,78.51 218.658,79.062 L218.658,182.877 C218.658,183.429 218.21,183.877 217.658,183.877 L195.929,183.877 C195.377,183.877 194.929,183.429 194.929,182.877 L194.929,79.062 C194.929,78.51 195.377,78.062 195.929,78.062 L217.658,78.062 z M217.658,79.062 L195.929,79.062 L195.929,182.877 L217.658,182.877 L217.658,79.062 z" fill="#89C0FD"/>
      </g>
      <g>
        <path d="M256.287,92.857 L305.658,92.857 L305.658,189.452 L256.287,189.452 z" fill="#BBD8FC"/>
        <path d="M305.658,91.857 C306.21,91.857 306.658,92.305 306.658,92.857 L306.658,189.452 C306.658,190.005 306.21,190.452 305.658,190.452 L256.287,190.452 C255.734,190.452 255.287,190.005 255.287,189.452 L255.287,92.857 C255.287,92.305 255.734,91.857 256.287,91.857 L305.658,91.857 z M305.658,92.857 L256.287,92.857 L256.287,189.452 L305.658,189.452 L305.658,92.857 z" fill="#BBD8FC"/>
      </g>
      <path d="M264.583,105.737 L297.362,105.737 C299.624,105.737 301.459,107.236 301.459,109.086 L301.459,109.086 C301.459,110.936 299.624,112.436 297.362,112.436 L264.583,112.436 C262.32,112.436 260.485,110.936 260.485,109.086 L260.485,109.086 C260.485,107.236 262.32,105.737 264.583,105.737 z" fill="#FFFFFF"/>
      <path d="M264.583,118.616 L297.362,118.616 C299.624,118.616 301.459,120.116 301.459,121.966 L301.459,121.966 C301.459,123.816 299.624,125.315 297.362,125.315 L264.583,125.315 C262.32,125.315 260.485,123.816 260.485,121.966 L260.485,121.966 C260.485,120.116 262.32,118.616 264.583,118.616 z" fill="#FFFFFF"/>
      <path d="M264.583,131.495 L297.362,131.495 C299.624,131.495 301.459,132.995 301.459,134.845 L301.459,134.845 C301.459,136.695 299.624,138.195 297.362,138.195 L264.583,138.195 C262.32,138.195 260.485,136.695 260.485,134.845 L260.485,134.845 C260.485,132.995 262.32,131.495 264.583,131.495 z" fill="#FFFFFF"/>
      <path d="M264.583,144.375 L297.362,144.375 C299.624,144.375 301.459,145.875 301.459,147.724 L301.459,147.724 C301.459,149.574 299.624,151.074 297.362,151.074 L264.583,151.074 C262.32,151.074 260.485,149.574 260.485,147.724 L260.485,147.724 C260.485,145.875 262.32,144.375 264.583,144.375 z" fill="#FFFFFF"/>
      <path d="M264.583,157.709 L297.362,157.709 C299.624,157.709 301.459,159.209 301.459,161.059 L301.459,161.059 C301.459,162.909 299.624,164.408 297.362,164.408 L264.583,164.408 C262.32,164.408 260.485,162.909 260.485,161.059 L260.485,161.059 C260.485,159.209 262.32,157.709 264.583,157.709 z" fill="#B2BAD9"/>
      <path d="M264.583,170.589 L297.362,170.589 C299.624,170.589 301.459,172.088 301.459,173.938 L301.459,173.938 C301.459,175.788 299.624,177.288 297.362,177.288 L264.583,177.288 C262.32,177.288 260.485,175.788 260.485,173.938 L260.485,173.938 C260.485,172.088 262.32,170.589 264.583,170.589 z" fill="#B2BAD9"/>
      <path d="M232.144,92.858 L232.144,92.858 C233.477,92.858 234.558,94.078 234.558,95.583 L234.558,171.885 C234.558,173.39 233.477,174.61 232.144,174.61 L232.144,174.61 C230.81,174.61 229.729,173.39 229.729,171.885 L229.729,95.583 C229.729,94.078 230.81,92.858 232.144,92.858 z" fill="#FFFFFF"/>
      <g>
        <path d="M43.765,92.858 L88.541,92.858 L88.541,180.463 L43.765,180.463 z" fill="#BBD8FC"/>
        <path d="M88.541,91.857 C89.093,91.858 89.541,92.305 89.541,92.857 L89.541,180.463 C89.541,181.015 89.093,181.463 88.541,181.463 L43.765,181.463 C43.213,181.463 42.765,181.015 42.765,180.463 L42.765,92.857 C42.765,92.305 43.213,91.858 43.765,91.857 L88.541,91.857 z M88.541,92.857 L43.765,92.857 L43.765,180.463 L88.541,180.463 L88.541,92.857 z" fill="#BBD8FC"/>
      </g>
      <path d="M51.289,104.538 L81.017,104.538 C83.07,104.538 84.733,105.898 84.733,107.576 L84.733,107.576 C84.733,109.254 83.07,110.614 81.017,110.614 L51.289,110.614 C49.237,110.614 47.573,109.254 47.573,107.576 L47.573,107.576 C47.573,105.898 49.237,104.538 51.289,104.538 z" fill="#FFFFFF"/>
      <path d="M51.289,116.219 L81.017,116.219 C83.07,116.219 84.733,117.579 84.733,119.257 L84.733,119.257 C84.733,120.934 83.07,122.295 81.017,122.295 L51.289,122.295 C49.237,122.295 47.573,120.934 47.573,119.257 L47.573,119.257 C47.573,117.579 49.237,116.219 51.289,116.219 z" fill="#FFFFFF"/>
      <path d="M51.289,127.9 L81.017,127.9 C83.07,127.9 84.733,129.26 84.733,130.937 L84.733,130.937 C84.733,132.615 83.07,133.975 81.017,133.975 L51.289,133.975 C49.237,133.975 47.573,132.615 47.573,130.937 L47.573,130.937 C47.573,129.26 49.237,127.9 51.289,127.9 z" fill="#FFFFFF"/>
      <path d="M51.289,139.58 L81.017,139.58 C83.07,139.58 84.733,140.94 84.733,142.618 L84.733,142.618 C84.733,144.296 83.07,145.656 81.017,145.656 L51.289,145.656 C49.237,145.656 47.573,144.296 47.573,142.618 L47.573,142.618 C47.573,140.94 49.237,139.58 51.289,139.58 z" fill="#FFFFFF"/>
      <path d="M51.289,151.674 L81.017,151.674 C83.07,151.674 84.733,153.034 84.733,154.712 L84.733,154.712 C84.733,156.389 83.07,157.749 81.017,157.749 L51.289,157.749 C49.237,157.749 47.573,156.389 47.573,154.712 L47.573,154.712 C47.573,153.034 49.237,151.674 51.289,151.674 z" fill="#FFFFFF"/>
      <path d="M51.289,163.354 L81.017,163.354 C83.07,163.354 84.733,164.714 84.733,166.392 L84.733,166.392 C84.733,168.07 83.07,169.43 81.017,169.43 L51.289,169.43 C49.237,169.43 47.573,168.07 47.573,166.392 L47.573,166.392 C47.573,164.714 49.237,163.354 51.289,163.354 z" fill="#FFFFFF"/>
      <g>
        <path d="M80.043,59.748 L118.388,59.748 C118.388,59.748 118.388,74.233 118.388,81.476 C118.388,88.719 121.228,88.719 122.648,88.719 C124.069,88.719 128.329,88.719 128.329,88.719 L128.329,182.877 L97.085,182.877 C97.085,182.877 97.085,107.068 97.085,96.686 C97.085,83.891 97.085,83.891 89.984,83.891 C87.144,83.891 80.043,83.891 80.043,83.891 L80.043,59.748 z" fill="#A2CDFD"/>
        <path d="M118.388,58.748 C118.94,58.748 119.388,59.195 119.388,59.748 L119.388,81.476 C119.388,85.321 120.145,87.038 121.304,87.531 C121.66,87.682 121.987,87.719 122.648,87.719 L128.329,87.719 C128.881,87.719 129.329,88.167 129.329,88.719 L129.329,182.877 C129.329,183.429 128.881,183.877 128.329,183.877 L97.085,183.877 C96.533,183.877 96.085,183.429 96.085,182.877 L96.085,96.686 C96.085,84.369 96.374,84.891 89.984,84.891 L80.043,84.891 C79.491,84.891 79.043,84.443 79.043,83.891 L79.043,59.748 C79.043,59.195 79.491,58.748 80.043,58.748 L118.388,58.748 z M118.388,59.748 L80.043,59.748 L80.043,83.891 C80.043,83.891 87.144,83.891 89.984,83.891 C97.085,83.891 97.085,83.891 97.085,96.686 L97.085,182.877 L128.329,182.877 L128.329,88.719 C128.329,88.719 124.069,88.719 122.648,88.719 C121.228,88.719 118.388,88.719 118.388,81.476 L118.388,59.748 z" fill="#A2CDFD"/>
      </g>
      <path d="M217.658,235.992 C210.991,235.992 205.587,230.587 205.587,223.92 C205.587,217.253 210.991,211.849 217.658,211.849 C224.325,211.849 229.729,217.253 229.729,223.92 C229.729,230.587 224.325,235.992 217.658,235.992 z" fill="#D0DBEF"/>
      <path d="M178.627,310.835 C157.959,310.835 141.205,294.08 141.205,273.413 C141.205,252.746 157.959,235.991 178.627,235.991 C199.294,235.991 216.048,252.746 216.048,273.413 C216.048,294.08 199.294,310.835 178.627,310.835 z" fill="#BECFE1"/>
      <path d="M47.731,180.213 L316.644,178.048 C316.644,178.048 345.616,180.463 345.616,199.777 C345.616,221.506 331.13,221.506 297.33,221.506 C297.33,221.506 292.501,221.506 292.501,216.677 C292.501,211.849 296.357,211.849 297.33,211.849 C302.158,211.849 321.473,214.263 321.473,207.02 C321.473,199.777 308.955,199.777 305.658,199.777 L47.731,199.777 C47.731,199.777 26.387,201.022 19.686,197.363 C5.2,189.453 2.786,169.781 5.2,158.734 C7.828,146.707 24.774,145.505 39,144.248 C39,149.077 39,149.077 39,158.734 C24.514,158.734 28.085,167.032 29.343,170.806 C31.757,178.048 36.242,180.213 47.731,180.213 z" fill="#4CCEB1"/>
      <path d="M241.801,92.858 L241.801,92.858 C243.134,92.858 244.215,94.078 244.215,95.583 L244.215,171.885 C244.215,173.39 243.134,174.61 241.801,174.61 L241.801,174.61 C240.468,174.61 239.387,173.39 239.387,171.885 L239.387,95.583 C239.387,94.078 240.468,92.858 241.801,92.858 z" fill="#FFFFFF"/>
      <g>
        <path d="M139.739,198.688 C138.543,198.476 136.652,196.57 136.652,194.869 C136.652,193.168 137.917,191.711 139.652,191.711 C141.386,191.711 142.934,193.168 142.934,194.869 C142.934,194.869 142.866,199.062 139.739,198.688 z" fill="#EBEBEB"/>
        <path d="M137.842,215.933 C136.713,216.382 133.716,215.54 132.821,214.094 C131.927,212.647 132.577,209.792 134.052,208.88 C135.528,207.967 137.777,208.138 138.672,209.585 C138.672,209.585 140.698,214.607 137.842,215.933 z" fill="#EBEBEB"/>
        <path d="M139.079,228.373 C137.401,228.793 134.971,227.555 135.198,225.175 C135.46,222.422 137.087,221.468 138.822,221.468 C140.556,221.468 142.104,222.924 142.104,224.625 C142.104,224.625 142.134,227.61 139.079,228.373 z" fill="#EBEBEB"/>
        <path d="M139.914,245.143 C138.204,244.484 136.904,243.279 136.904,241.578 C136.904,239.877 138.129,238.076 140.18,238.959 C141.773,239.644 143.186,239.877 143.186,241.578 C143.186,241.578 142.853,246.276 139.914,245.143 z" fill="#EBEBEB"/>
        <path d="M225.942,294.401 C223.889,290.861 214.529,283.687 206.638,277.905 C201.808,274.367 201.305,275.189 198.732,274.89 C187.695,273.609 179.92,259.412 175.213,252.832 C172.99,249.725 174.436,250.334 166.113,249.892 C159.891,249.561 147.659,248.188 143.76,247.748 C136.634,246.946 137.886,239.435 140.197,237.734 C142.373,236.132 147.579,235.615 151.44,235.291 C149.085,233.367 147.134,232.095 145.934,232.149 C134.277,234.061 135.779,224.672 137.77,222.493 C139.174,220.956 145.375,218.936 148.394,218.572 C143.189,218.728 141.104,218.6 138.902,218.106 C133.64,216.925 132.876,213.54 133.418,211.192 C133.847,208.237 142.525,204.855 145.766,203.711 C142.572,202.471 141.682,202.215 139.474,200.326 C135.658,197.063 137.964,192.02 140.549,191.591 C148.839,190.215 159.207,193.395 169.833,196.731 C180.206,199.988 193.949,201.198 205.938,211.098 C214.246,217.958 216.406,235.383 227.357,245.32 C228.301,246.177 234.09,250.935 239.789,256.104 C245.73,261.492 248.097,269.138 248.097,271.349 C248.097,285.277 236.38,294.401 225.942,294.401 z" fill="#F2B29B"/>
        <path d="M154.606,202.681 L187.298,202.681 C190.891,202.681 193.803,204.209 193.803,206.093 L193.803,244.97 C193.803,246.854 190.891,248.381 187.298,248.381 L154.606,248.381 C151.014,248.381 148.102,246.854 148.102,244.97 L148.102,206.093 C148.102,204.209 151.014,202.681 154.606,202.681 z" fill="#545665" opacity="0.3"/>
        <g>
          <path d="M145.027,156.86 L145.027,156.86 C145.227,156.86 145.389,157.043 145.389,157.27 L145.389,160.31 C145.389,160.536 145.227,160.719 145.027,160.719 L145.027,160.719 C144.828,160.719 144.666,160.536 144.666,160.31 L144.666,157.27 C144.666,157.043 144.828,156.86 145.027,156.86 z" fill="url(#Gradient_1)"/>
          <path d="M142.666,155.86 L147.389,155.86 L147.389,161.719 L142.666,161.719 z M145.027,156.86 C144.828,156.86 144.666,157.043 144.666,157.27 L144.666,160.31 C144.666,160.536 144.828,160.719 145.027,160.719 C145.227,160.719 145.389,160.536 145.389,160.31 L145.389,157.27 C145.389,157.043 145.227,156.86 145.027,156.86 z" clip-path="url(#Clip_1)" filter="url(#InnerShadow_2)" fill="rgba(0,0,0,1)"/>
          <path d="M141.666,151.86 L148.389,151.86 L148.389,165.719 L141.666,165.719 z M145.027,156.86 C144.828,156.86 144.666,157.043 144.666,157.27 L144.666,160.31 C144.666,160.536 144.828,160.719 145.027,160.719 C145.227,160.719 145.389,160.536 145.389,160.31 L145.389,157.27 C145.389,157.043 145.227,156.86 145.027,156.86 z" clip-path="url(#Clip_3)" filter="url(#InnerShadow_4)" fill="rgba(0,0,0,0.75)"/>
          <path d="M141.666,151.86 L148.389,151.86 L148.389,165.719 L141.666,165.719 z M145.027,156.86 C144.828,156.86 144.666,157.043 144.666,157.27 L144.666,160.31 C144.666,160.536 144.828,160.719 145.027,160.719 C145.227,160.719 145.389,160.536 145.389,160.31 L145.389,157.27 C145.389,157.043 145.227,156.86 145.027,156.86 z" clip-path="url(#Clip_5)" filter="url(#InnerShadow_6)" fill="rgba(0,0,0,1)"/>
        </g>
        <g>
          <path d="M145.027,164.336 L145.027,164.336 C145.227,164.336 145.389,164.691 145.389,165.129 L145.389,171.019 C145.389,171.457 145.227,171.812 145.027,171.812 L145.027,171.812 C144.828,171.812 144.666,171.457 144.666,171.019 L144.666,165.129 C144.666,164.691 144.828,164.336 145.027,164.336 z" fill="url(#Gradient_2)"/>
          <path d="M142.666,163.336 L147.389,163.336 L147.389,172.812 L142.666,172.812 z M145.027,164.336 C144.828,164.336 144.666,164.691 144.666,165.129 L144.666,171.019 C144.666,171.457 144.828,171.812 145.027,171.812 C145.227,171.812 145.389,171.457 145.389,171.019 L145.389,165.129 C145.389,164.691 145.227,164.336 145.027,164.336 z" clip-path="url(#Clip_7)" filter="url(#InnerShadow_8)" fill="rgba(0,0,0,1)"/>
          <path d="M141.666,159.336 L148.389,159.336 L148.389,176.812 L141.666,176.812 z M145.027,164.336 C144.828,164.336 144.666,164.691 144.666,165.129 L144.666,171.019 C144.666,171.457 144.828,171.812 145.027,171.812 C145.227,171.812 145.389,171.457 145.389,171.019 L145.389,165.129 C145.389,164.691 145.227,164.336 145.027,164.336 z" clip-path="url(#Clip_9)" filter="url(#InnerShadow_10)" fill="rgba(0,0,0,0.75)"/>
          <path d="M141.666,159.336 L148.389,159.336 L148.389,176.812 L141.666,176.812 z M145.027,164.336 C144.828,164.336 144.666,164.691 144.666,165.129 L144.666,171.019 C144.666,171.457 144.828,171.812 145.027,171.812 C145.227,171.812 145.389,171.457 145.389,171.019 L145.389,165.129 C145.389,164.691 145.227,164.336 145.027,164.336 z" clip-path="url(#Clip_11)" filter="url(#InnerShadow_12)" fill="rgba(0,0,0,1)"/>
        </g>
        <g>
          <path d="M196.877,167.11 L196.877,167.11 C197.077,167.11 197.239,167.285 197.239,167.5 L197.239,178.174 C197.239,178.39 197.077,178.565 196.877,178.565 L196.877,178.565 C196.678,178.565 196.516,178.39 196.516,178.174 L196.516,167.5 C196.516,167.285 196.678,167.11 196.877,167.11 z" fill="#545665"/>
          <path d="M194.516,166.11 L199.239,166.11 L199.239,179.565 L194.516,179.565 z M196.877,167.11 C196.678,167.11 196.516,167.285 196.516,167.5 L196.516,178.174 C196.516,178.39 196.678,178.565 196.877,178.565 C197.077,178.565 197.239,178.39 197.239,178.174 L197.239,167.5 C197.239,167.285 197.077,167.11 196.877,167.11 z" clip-path="url(#Clip_13)" filter="url(#InnerShadow_14)" fill="rgba(0,0,0,1)"/>
          <path d="M193.516,162.11 L200.239,162.11 L200.239,183.565 L193.516,183.565 z M196.877,167.11 C196.678,167.11 196.516,167.285 196.516,167.5 L196.516,178.174 C196.516,178.39 196.678,178.565 196.877,178.565 C197.077,178.565 197.239,178.39 197.239,178.174 L197.239,167.5 C197.239,167.285 197.077,167.11 196.877,167.11 z" clip-path="url(#Clip_15)" filter="url(#InnerShadow_16)" fill="rgba(0,0,0,0.75)"/>
          <path d="M193.516,162.11 L200.239,162.11 L200.239,183.565 L193.516,183.565 z M196.877,167.11 C196.678,167.11 196.516,167.285 196.516,167.5 L196.516,178.174 C196.516,178.39 196.678,178.565 196.877,178.565 C197.077,178.565 197.239,178.39 197.239,178.174 L197.239,167.5 C197.239,167.285 197.077,167.11 196.877,167.11 z" clip-path="url(#Clip_17)" filter="url(#InnerShadow_18)" fill="rgba(0,0,0,1)"/>
        </g>
        <g>
          <path d="M145.027,173.742 L145.027,173.742 C145.227,173.742 145.389,174.097 145.389,174.535 L145.389,180.425 C145.389,180.863 145.227,181.218 145.027,181.218 L145.027,181.218 C144.828,181.218 144.666,180.863 144.666,180.425 L144.666,174.535 C144.666,174.097 144.828,173.742 145.027,173.742 z" fill="url(#Gradient_3)"/>
          <path d="M142.666,172.742 L147.389,172.742 L147.389,182.218 L142.666,182.218 z M145.027,173.742 C144.828,173.742 144.666,174.097 144.666,174.535 L144.666,180.425 C144.666,180.863 144.828,181.218 145.027,181.218 C145.227,181.218 145.389,180.863 145.389,180.425 L145.389,174.535 C145.389,174.097 145.227,173.742 145.027,173.742 z" clip-path="url(#Clip_19)" filter="url(#InnerShadow_20)" fill="rgba(0,0,0,1)"/>
          <path d="M141.666,168.742 L148.389,168.742 L148.389,186.218 L141.666,186.218 z M145.027,173.742 C144.828,173.742 144.666,174.097 144.666,174.535 L144.666,180.425 C144.666,180.863 144.828,181.218 145.027,181.218 C145.227,181.218 145.389,180.863 145.389,180.425 L145.389,174.535 C145.389,174.097 145.227,173.742 145.027,173.742 z" clip-path="url(#Clip_21)" filter="url(#InnerShadow_22)" fill="rgba(0,0,0,0.75)"/>
          <path d="M141.666,168.742 L148.389,168.742 L148.389,186.218 L141.666,186.218 z M145.027,173.742 C144.828,173.742 144.666,174.097 144.666,174.535 L144.666,180.425 C144.666,180.863 144.828,181.218 145.027,181.218 C145.227,181.218 145.389,180.863 145.389,180.425 L145.389,174.535 C145.389,174.097 145.227,173.742 145.027,173.742 z" clip-path="url(#Clip_23)" filter="url(#InnerShadow_24)" fill="rgba(0,0,0,1)"/>
        </g>
        <g>
          <path d="M157.373,142.511 L184.532,142.511 C191.35,142.511 196.877,146.801 196.877,152.093 L196.877,237.594 C196.877,242.886 191.35,247.175 184.532,247.175 L157.373,247.175 C150.555,247.175 145.027,242.886 145.027,237.594 L145.027,152.093 C145.027,146.801 150.555,142.511 157.373,142.511 z" fill="#545665"/>
          <path d="M139.027,121.511 L202.877,121.511 L202.877,268.176 L139.027,268.176 z M184.532,142.511 L157.373,142.511 C150.555,142.511 145.027,146.801 145.027,152.093 L145.027,237.594 C145.027,242.886 150.555,247.175 157.373,247.175 L184.532,247.175 C191.35,247.175 196.877,242.886 196.877,237.594 L196.877,152.093 C196.877,146.801 191.35,142.511 184.532,142.511 z" clip-path="url(#Clip_25)" filter="url(#InnerShadow_26)" fill="rgba(0,0,0,1)"/>
          <path d="M143.027,134.511 L198.877,134.511 L198.877,255.175 L143.027,255.175 z M184.532,142.511 L157.373,142.511 C150.555,142.511 145.027,146.801 145.027,152.093 L145.027,237.594 C145.027,242.886 150.555,247.175 157.373,247.175 L184.532,247.175 C191.35,247.175 196.877,242.886 196.877,237.594 L196.877,152.093 C196.877,146.801 191.35,142.511 184.532,142.511 z" clip-path="url(#Clip_27)" filter="url(#InnerShadow_28)" fill="rgba(0,0,0,1)"/>
          <path d="M139.027,121.511 L202.877,121.511 L202.877,268.176 L139.027,268.176 z M184.532,142.511 L157.373,142.511 C150.555,142.511 145.027,146.801 145.027,152.093 L145.027,237.594 C145.027,242.886 150.555,247.175 157.373,247.175 L184.532,247.175 C191.35,247.175 196.877,242.886 196.877,237.594 L196.877,152.093 C196.877,146.801 191.35,142.511 184.532,142.511 z" clip-path="url(#Clip_29)" filter="url(#InnerShadow_30)" fill="rgba(0,0,0,1)"/>
          <path d="M143.027,134.511 L198.877,134.511 L198.877,255.175 L143.027,255.175 z M184.532,142.511 L157.373,142.511 C150.555,142.511 145.027,146.801 145.027,152.093 L145.027,237.594 C145.027,242.886 150.555,247.175 157.373,247.175 L184.532,247.175 C191.35,247.175 196.877,242.886 196.877,237.594 L196.877,152.093 C196.877,146.801 191.35,142.511 184.532,142.511 z" clip-path="url(#Clip_31)" filter="url(#InnerShadow_32)" fill="rgba(0,0,0,1)"/>
          <path d="M184.532,142.511 C191.35,142.511 196.877,146.801 196.877,152.093 L196.877,237.594 C196.877,242.886 191.35,247.175 184.532,247.175 L157.373,247.175 C150.555,247.175 145.027,242.886 145.027,237.594 L145.027,152.093 C145.027,146.801 150.555,142.511 157.373,142.511 L184.532,142.511 z M184.532,144.511 L157.373,144.511 C151.564,144.511 147.027,148.032 147.027,152.093 L147.027,237.594 C147.027,241.654 151.564,245.175 157.373,245.175 L184.532,245.175 C190.341,245.175 194.877,241.654 194.877,237.594 L194.877,152.093 C194.877,148.032 190.341,144.511 184.532,144.511 z" fill="#545665"/>
          <path d="M184.532,142.511 C191.35,142.511 196.877,146.801 196.877,152.093 L196.877,237.594 C196.877,242.886 191.35,247.175 184.532,247.175 L157.373,247.175 C150.555,247.175 145.027,242.886 145.027,237.594 L145.027,152.093 C145.027,146.801 150.555,142.511 157.373,142.511 L184.532,142.511 z M184.532,143.511 L157.373,143.511 C151.059,143.511 146.027,147.416 146.027,152.093 L146.027,237.594 C146.027,242.27 151.059,246.175 157.373,246.175 L184.532,246.175 C190.845,246.175 195.877,242.27 195.877,237.594 L195.877,152.093 C195.877,147.416 190.845,143.511 184.532,143.511 z" fill="#545665"/>
        </g>
        <g>
          <path d="M154.964,143.355 L186.94,143.355 C191.962,143.355 196.033,147.37 196.033,152.323 L196.033,237.364 C196.033,242.317 191.962,246.332 186.94,246.332 L154.964,246.332 C149.942,246.332 145.871,242.317 145.871,237.364 L145.871,152.323 C145.871,147.37 149.942,143.355 154.964,143.355 z" fill="url(#Gradient_4)"/>
          <path d="M186.94,143.355 C191.962,143.355 196.033,147.37 196.033,152.323 L196.033,237.364 C196.033,242.317 191.962,246.332 186.94,246.332 L154.964,246.331 C149.942,246.332 145.871,242.317 145.871,237.364 L145.871,152.322 C145.871,147.37 149.942,143.355 154.964,143.355 L186.94,143.355 z M186.94,144.355 L154.964,144.355 C150.491,144.355 146.871,147.925 146.871,152.322 L146.871,237.364 C146.871,241.761 150.491,245.332 154.964,245.331 L186.94,245.331 C191.413,245.332 195.033,241.761 195.033,237.364 L195.033,152.322 C195.033,147.925 191.413,144.355 186.94,144.355 z" fill="#000000"/>
        </g>
        <g>
          <path d="M156.564,143.838 L185.34,143.838 C190.979,143.838 195.551,147.559 195.551,152.15 L195.551,237.537 C195.551,242.128 190.979,245.849 185.34,245.849 L156.564,245.849 C150.925,245.849 146.354,242.128 146.354,237.537 L146.354,152.15 C146.354,147.559 150.925,143.838 156.564,143.838 z" fill="#545665"/>
          <path d="M185.34,142.837 C191.492,142.838 196.551,146.956 196.551,152.15 L196.551,237.537 C196.551,242.731 191.492,246.849 185.34,246.849 L156.564,246.849 C150.413,246.849 145.354,242.731 145.354,237.537 L145.354,152.15 C145.354,146.956 150.413,142.838 156.564,142.837 L185.34,142.837 z M185.34,143.837 L156.564,143.837 C150.925,143.838 146.354,147.559 146.354,152.15 L146.354,237.537 C146.354,242.128 150.925,245.849 156.564,245.849 L185.34,245.849 C190.979,245.849 195.551,242.128 195.551,237.537 L195.551,152.15 C195.551,147.559 190.979,143.838 185.34,143.837 z" fill="#545665"/>
        </g>
        <path d="M146.367,237.121 C146.925,242.289 151.767,244.907 156.564,245.005 L185.34,245.005 C190.979,245.005 195.551,241.284 195.551,236.693 L195.551,237.537 C195.551,242.128 190.979,245.849 185.34,245.849 L156.564,245.849 C150.925,245.849 146.354,242.128 146.354,237.537 L146.354,236.693 L146.367,237.121 z" fill="#545665"/>
        <path d="M185.34,143.837 C190.979,143.837 195.551,147.559 195.551,152.15 L195.551,152.994 C195.551,148.403 190.979,144.682 185.34,144.682 L156.564,144.682 C150.925,144.682 146.354,148.403 146.354,152.994 L146.354,152.15 C146.354,147.559 150.925,143.837 156.564,143.837 L185.34,143.837 z" fill="#545665"/>
        <path d="M148.314,147.258 C147.541,148.542 147.233,150.047 147.198,151.528 L147.198,238.159 C147.226,239.602 147.537,241.187 148.314,242.428 C147.072,241.065 146.411,239.372 146.354,237.537 L146.354,152.149 C146.367,150.199 147.094,148.729 148.314,147.258 z" fill="#545665"/>
        <path d="M193.591,147.259 C194.833,148.621 195.494,150.315 195.551,152.15 L195.551,237.537 C195.538,239.488 194.811,240.958 193.591,242.428 C194.364,241.145 194.672,239.639 194.707,238.159 L194.707,151.528 C194.679,150.084 194.368,148.5 193.591,147.259 z" fill="#545665"/>
        <g>
          <path d="M196.033,236.565 L196.877,236.565 L196.877,237.167 L196.033,237.167 z" fill="url(#Gradient_5)"/>
          <path d="M194.033,235.564 L198.877,235.564 L198.877,238.167 L194.033,238.167 z M196.877,236.564 L196.033,236.564 L196.033,237.167 L196.877,237.167 L196.877,236.564 z" clip-path="url(#Clip_33)" filter="url(#InnerShadow_34)" fill="rgba(0,0,0,0.25)"/>
        </g>
        <g>
          <path d="M157.447,145.646 C157.78,145.646 158.05,145.916 158.05,146.249 L158.05,146.316 C158.05,147.944 159.603,149.264 161.519,149.264 L180.386,149.264 C182.302,149.264 183.855,147.944 183.855,146.316 L183.855,145.646 L186.403,145.646 C190.456,145.646 193.742,148.841 193.742,152.782 L193.742,236.905 C193.742,240.846 190.456,244.041 186.403,244.041 L155.502,244.041 C151.448,244.041 148.163,240.846 148.163,236.905 L148.163,152.782 C148.163,148.841 151.448,145.646 155.502,145.646 L157.447,145.646 z M183.855,145.646 L183.855,146.249 C183.868,145.897 184.122,145.68 184.458,145.646 L183.855,145.646 z" fill="#FFFFFF"/>
          <path d="M157.447,145.646 C157.78,145.646 158.05,145.916 158.05,146.249 L158.05,146.316 C158.05,147.944 159.603,149.264 161.519,149.264 L180.386,149.264 C182.302,149.264 183.855,147.944 183.855,146.316 L183.855,145.646 L186.403,145.646 C190.456,145.646 193.742,148.841 193.742,152.782 L193.742,236.905 C193.742,240.846 190.456,244.041 186.403,244.041 L155.502,244.041 C151.448,244.041 148.163,240.846 148.163,236.905 L148.163,152.782 C148.163,148.841 151.448,145.646 155.502,145.646 L157.447,145.646 z M156.31,147.646 L155.502,147.646 C152.541,147.646 150.163,149.958 150.163,152.782 L150.163,236.905 C150.163,239.729 152.541,242.041 155.502,242.041 L186.403,242.041 C189.364,242.041 191.742,239.729 191.742,236.905 L191.742,152.782 C191.742,149.958 189.364,147.646 186.403,147.646 L185.595,147.646 C184.78,150.049 182.787,151.048 180.386,151.264 L161.518,151.264 C159.764,151.207 158.11,150.538 157.001,149.117 C156.668,148.69 156.54,148.136 156.31,147.646 z M184.458,145.646 L183.855,145.646 L183.855,146.249 C183.868,145.897 184.122,145.68 184.458,145.646 z" fill="#FFFFFF" fill-opacity="0.2"/>
        </g>
        <path d="M168.009,146.249 L173.896,146.249 C174.068,146.249 174.208,146.465 174.208,146.731 L174.208,146.731 C174.208,146.998 174.068,147.214 173.896,147.214 L168.009,147.214 C167.836,147.214 167.697,146.998 167.697,146.731 L167.697,146.731 C167.697,146.465 167.836,146.249 168.009,146.249 z" fill="url(#Gradient_6)"/>
        <g>
          <path d="M177.102,147.455 C176.702,147.455 176.379,147.131 176.379,146.731 C176.379,146.332 176.702,146.008 177.102,146.008 C177.502,146.008 177.826,146.332 177.826,146.731 C177.826,147.131 177.502,147.455 177.102,147.455 z" fill="url(#Gradient_7)"/>
          <path d="M177.102,147.214 C176.836,147.214 176.62,146.998 176.62,146.731 C176.62,146.465 176.836,146.249 177.102,146.249 C177.368,146.249 177.584,146.465 177.584,146.731 C177.584,146.998 177.368,147.214 177.102,147.214 z" fill="#0D144A"/>
          <path d="M177.102,146.852 C176.969,146.852 176.861,146.744 176.861,146.611 C176.861,146.478 176.969,146.37 177.102,146.37 C177.235,146.37 177.343,146.478 177.343,146.611 C177.343,146.744 177.235,146.852 177.102,146.852 z" fill="#212B63"/>
          <path d="M177.102,146.611 C177.035,146.611 176.981,146.557 176.981,146.49 C176.981,146.424 177.035,146.37 177.102,146.37 C177.169,146.37 177.223,146.424 177.223,146.49 C177.223,146.557 177.169,146.611 177.102,146.611 z" fill="#31439B"/>
        </g>
        <path d="M162.798,240.182 L179.107,240.182 C179.265,240.182 179.393,240.29 179.393,240.423 L179.393,240.544 C179.393,240.677 179.265,240.785 179.107,240.785 L162.798,240.785 C162.64,240.785 162.512,240.677 162.512,240.544 L162.512,240.423 C162.512,240.29 162.64,240.182 162.798,240.182 z" fill="#000000"/>
        <g>
          <path d="M157.447,145.646 C157.78,145.646 158.05,145.916 158.05,146.249 L158.05,146.316 C158.05,147.944 159.603,149.264 161.519,149.264 L180.386,149.264 C182.302,149.264 183.855,147.944 183.855,146.316 L183.855,145.646 L186.403,145.646 C190.456,145.646 193.742,148.841 193.742,152.782 L193.742,236.905 C193.742,240.846 190.456,244.041 186.403,244.041 L155.502,244.041 C151.448,244.041 148.163,240.846 148.163,236.905 L148.163,152.782 C148.163,148.841 151.448,145.646 155.502,145.646 L157.447,145.646 z M183.855,145.646 L183.855,146.249 C183.868,145.897 184.122,145.68 184.458,145.646 L183.855,145.646 z" fill="#FFFFFF"/>
          <path d="M157.447,145.646 C157.78,145.646 158.05,145.916 158.05,146.249 L158.05,146.316 C158.05,147.944 159.603,149.264 161.519,149.264 L180.386,149.264 C182.302,149.264 183.855,147.944 183.855,146.316 L183.855,145.646 L186.403,145.646 C190.456,145.646 193.742,148.841 193.742,152.782 L193.742,236.905 C193.742,240.846 190.456,244.041 186.403,244.041 L155.502,244.041 C151.448,244.041 148.163,240.846 148.163,236.905 L148.163,152.782 C148.163,148.841 151.448,145.646 155.502,145.646 L157.447,145.646 z M156.31,147.646 L155.502,147.646 C152.541,147.646 150.163,149.958 150.163,152.782 L150.163,236.905 C150.163,239.729 152.541,242.041 155.502,242.041 L186.403,242.041 C189.364,242.041 191.742,239.729 191.742,236.905 L191.742,152.782 C191.742,149.958 189.364,147.646 186.403,147.646 L185.595,147.646 C184.78,150.049 182.787,151.048 180.386,151.264 L161.518,151.264 C159.764,151.207 158.11,150.538 157.001,149.117 C156.668,148.69 156.54,148.136 156.31,147.646 z M184.458,145.646 L183.855,145.646 L183.855,146.249 C183.868,145.897 184.122,145.68 184.458,145.646 z" fill="#FFFFFF" fill-opacity="0.2"/>
        </g>
        <g>
          <text transform="matrix(1, 0, 0, 1, 155.337, 147.636)"/>
          <path d="" fill-opacity="0" stroke="#000000" stroke-width="0.5"/>
        </g>
        <path d="M194.1,250.752 C192.463,247.726 190.643,239.602 190.643,232.025 C190.643,229.677 188.058,226.053 186.409,223.691 C186.409,223.691 186.409,223.691 186.409,223.691 C186.409,223.691 186.409,223.691 186.409,223.691 C185.685,223.257 184.136,222.719 183.859,221.178 C180.223,221.887 170.178,214.22 169.215,213.518 C167.277,212.107 165.678,206.291 168.851,204.894 C171.863,203.568 179.475,205.114 182.315,204.968 C184.812,204.943 186.687,203.706 190.679,204.401 C194.423,205.242 209.723,222.218 210.483,229.756 C211.182,236.693 211.854,246.364 207.333,253.671 C204.544,258.18 200.625,262.821 194.1,250.752 z" fill="#FFBC9F"/>
        <path d="M169.836,211.338 C167.348,210.477 166.446,209.339 166.446,207.494 C166.446,206.531 167.079,205.04 168.232,204.528 C169.288,204.059 171.268,204.167 172.621,204.316 C174.062,204.474 176.588,204.993 178.1,205.648 C179.008,206.041 179.795,206.828 179.976,207.555 C180.387,209.198 179.795,209.855 179.098,210.763 C178.563,211.461 177.585,212.428 175.92,212.428 C173.679,212.428 170.659,211.623 169.836,211.338 z" fill="#FFFFFF"/>
        <path d="M223.849,293.938 L251.443,264.634 C252.034,264.007 253.301,264.24 254.272,265.155 L276.542,286.126 C276.542,286.126 286.2,295.681 280.047,302.076 C277.014,305.383 272.12,311.135 266.23,316.748 C258.469,321.781 245.859,316.806 245.859,316.806 L224.539,296.731 C223.568,295.815 223.258,294.565 223.849,293.938 z" fill="#545665"/>
        <path d="M235.907,281.133 L251.444,264.634 C252.034,264.007 253.301,264.24 254.272,265.155 L276.542,286.126 C276.542,286.126 286.2,295.681 280.046,302.076 C277.842,304.48 274.653,308.176 270.814,312.172 z" fill="#38424B"/>
        <path d="M208.652,279.785 L236.246,250.481 C236.837,249.854 237.703,249.711 238.181,250.161 L253.096,264.206 C253.574,264.656 253.483,265.529 252.892,266.156 L225.298,295.461 C224.707,296.088 223.841,296.231 223.363,295.781 L208.448,281.736 C207.97,281.286 208.061,280.413 208.652,279.785 z" fill="#FAFAFA"/>
        <path d="M221.38,266.268 L236.721,249.977 C237.049,249.628 237.703,249.71 238.18,250.16 L253.087,264.197 C253.565,264.647 253.686,265.294 253.357,265.642 L238.016,281.934 C237.688,282.282 237.035,282.2 236.557,281.751 L221.651,267.714 C221.173,267.264 221.052,266.617 221.38,266.268 z" fill="#EBEBEB"/>
        <g>
          <path d="M238.079,295.529 C239.903,295.529 241.381,297.007 241.381,298.831 C241.381,300.654 239.903,302.133 238.079,302.133 C236.256,302.133 234.778,300.654 234.778,298.831 C234.778,297.007 236.256,295.529 238.079,295.529 z" filter="url(#Shadow_35)" fill="rgba(0,0,0,1)"/>
          <path d="M238.079,302.133 C236.256,302.133 234.778,300.654 234.778,298.831 C234.778,297.007 236.256,295.529 238.079,295.529 C239.903,295.529 241.381,297.007 241.381,298.831 C241.381,300.654 239.903,302.133 238.079,302.133 z" fill="#FFFFFF"/>
        </g>
        <g>
          <g>
            <path d="M121.92,156.127 C121.92,156.127 174.748,156.127 174.748,156.127 C177.484,156.127 179.701,158.345 179.701,161.08 C179.701,161.08 179.701,192.447 179.701,192.447 C179.701,195.182 177.484,197.399 174.748,197.399 C174.748,197.399 121.92,197.399 121.92,197.399 C119.185,197.399 116.967,195.182 116.967,192.447 C116.967,192.447 116.967,161.08 116.967,161.08 C116.967,158.345 119.185,156.127 121.92,156.127 z" fill="#017DFF"/>
            <path d="M121.92,156.127 C121.92,156.127 174.748,156.127 174.748,156.127 C177.484,156.127 179.701,158.345 179.701,161.08 C179.701,161.08 179.701,192.447 179.701,192.447 C179.701,195.182 177.484,197.399 174.748,197.399 C174.748,197.399 121.92,197.399 121.92,197.399 C119.185,197.399 116.967,195.182 116.967,192.447 C116.967,192.447 116.967,161.08 116.967,161.08 C116.967,158.345 119.185,156.127 121.92,156.127 z" fill-opacity="0" stroke="#017DFF" stroke-width="2"/>
          </g>
          <g>
            <path d="M161.382,177.913 C161.704,178.235 162.025,178.556 162.346,178.877 C166.922,183.453 171.498,188.029 176.074,192.605 C176.397,192.928 176.397,193.45 176.074,193.773 C175.752,194.095 175.229,194.095 174.907,193.773 L174.865,193.73 C169.982,188.847 165.098,183.964 160.215,179.081 C159.893,178.758 159.893,178.236 160.215,177.913 C160.537,177.591 161.06,177.591 161.382,177.913 z z M136.453,177.913 C136.776,178.236 136.776,178.758 136.453,179.081 C131.57,183.964 126.687,188.847 121.803,193.73 L121.761,193.773 C121.439,194.095 120.916,194.095 120.594,193.773 C120.271,193.45 120.271,192.928 120.594,192.605 L120.636,192.563 C125.522,187.683 130.398,182.792 135.286,177.913 C135.608,177.591 136.131,177.591 136.453,177.913 z" fill="#FFFFFF"/>
            <path d="M161.382,177.913 C161.704,178.235 162.025,178.556 162.346,178.877 C166.922,183.453 171.498,188.029 176.074,192.605 C176.397,192.928 176.397,193.45 176.074,193.773 C175.752,194.095 175.229,194.095 174.907,193.773 L174.865,193.73 C169.982,188.847 165.098,183.964 160.215,179.081 C159.893,178.758 159.893,178.236 160.215,177.913 C160.537,177.591 161.06,177.591 161.382,177.913 z z M136.453,177.913 C136.776,178.236 136.776,178.758 136.453,179.081 C131.57,183.964 126.687,188.847 121.803,193.73 L121.761,193.773 C121.439,194.095 120.916,194.095 120.594,193.773 C120.271,193.45 120.271,192.928 120.594,192.605 L120.636,192.563 C125.522,187.683 130.398,182.792 135.286,177.913 C135.608,177.591 136.131,177.591 136.453,177.913 z" fill-opacity="0" stroke="#FFFFFF" stroke-width="1"/>
          </g>
          <path d="M118.618,159.429 L148.334,180.89 L178.05,159.429" fill-opacity="0" stroke="#FFFFFF" stroke-width="2" stroke-linecap="round" stroke-linejoin="round"/>
        </g>
      </g>
      <g>
        <path d="M210.536,182.017 C210.536,182.017 207.764,181.882 207.764,181.882 C207.764,181.882 206.382,181.763 206.04,181.275 C205.691,180.776 205.626,179.485 206.849,179.282 C206.339,179.225 205.048,178.794 205.02,177.925 C204.881,173.568 204.868,171.88 204.891,169.377 C204.905,167.86 204.983,166.805 205.204,166.089 C205.361,165.579 206.851,164.665 207.799,164.135 C209.503,163.181 213.096,161.307 215.274,160.768 C219.644,159.686 226.004,159.389 232.562,158.833 C240.032,153.54 250.652,148.046 254.24,147.907 C255.21,147.87 294.809,145.738 298.718,149.908 C301.87,153.269 303.041,154.457 306.645,158.062 C307.856,159.272 310.853,163.155 310.941,164.814 C311.136,168.494 311.01,171.531 310.725,178.822 C310.648,180.806 307.664,181.898 305.379,181.797 C305.379,181.797 210.536,182.017 210.536,182.017 z" fill="#FFA53D"/>
        <path d="M206.945,175.746 C206.635,174.598 205.395,170.738 205.922,170.738 C207.338,170.651 208.051,170.614 208.696,171.11 C209.099,171.42 209.278,171.703 209.74,174.321 C209.854,174.964 209.935,175.486 209.969,175.898 C210.022,176.545 210.015,176.888 209.214,176.811 C207.703,176.666 207.14,176.466 206.945,175.746 z" fill="#262A37"/>
        <path d="M208.376,181.924 C207.05,181.859 205.78,181.767 205.769,180.531 C205.755,179.004 207.055,178.897 208.355,178.897 C209.655,178.897 210.456,179.17 210.567,180.497 C210.735,182.517 209.92,181.999 208.376,181.924 z" fill="#262A37"/>
        <path d="M304.359,174.873 C304.381,173.446 304.239,172.286 306.001,172.312 C307.762,172.339 307.948,172.772 307.941,175.238 C307.936,176.665 307.992,178.002 306.044,177.849 C303.966,177.685 304.338,176.299 304.359,174.873 z" fill="#262A37"/>
        <path d="M305.096,181.821 C303.515,181.729 301.994,181.947 301.966,180.451 C301.939,178.955 302.412,178.703 305.15,178.707 C306.724,178.709 307.899,178.414 308.336,178.372 C309.132,178.296 309.849,176.634 310.91,176.688 C312.571,176.771 311.681,179.099 310.945,179.826 C309.475,181.276 306.875,181.925 305.096,181.821 z" fill="#262A37"/>
        <path d="M251.493,150.553 C253.83,149.774 261.305,150.053 268.256,150.358 C277.436,150.762 283.913,150.54 286.952,151.329 C290.285,152.194 291.448,153.448 292.918,155.367 C292.996,156.913 288.826,159.959 287.626,160.476 C286.065,161.149 277.005,160.883 267.177,160.62 C257.42,160.358 244.071,160.656 237.746,160.531 C242.439,156.579 249.941,151.071 251.493,150.553 z" fill="#424E7B"/>
        <path d="M301.689,160.032 C299.123,159.024 296.511,155.649 295.143,153.867 C294.651,153.226 296.118,152.75 296.44,152.585 C297.575,152.005 298.251,151.62 299.052,151.62 C299.992,151.62 303.346,155.795 306.455,159.179 C307.326,160.106 307.082,160.394 306.52,160.439 C305.372,160.53 303.175,160.616 301.689,160.032 z" fill="#424E7B"/>
        <path d="M238.897,154.499 C242.416,152.108 245.359,150.773 246.155,150.773 C246.709,150.773 247.262,150.924 247.006,151.452 C246.523,152.445 244.819,153.904 240.858,156.619 C238.732,158.077 236.741,160.027 235.294,160.514 C234.287,160.7 232.443,159.346 232.638,158.853 C233.591,157.658 235.378,156.89 238.897,154.499 z" fill="#424E7B"/>
        <path d="M223.311,189.414 C217.594,189.414 212.96,184.78 212.96,179.063 C212.96,173.346 217.594,168.711 223.311,168.711 C229.028,168.711 233.663,173.346 233.663,179.063 C233.663,184.78 229.028,189.414 223.311,189.414 z" fill="#262A37"/>
        <path d="M290.275,189.452 C284.558,189.452 279.924,184.818 279.924,179.101 C279.924,173.384 284.558,168.75 290.275,168.75 C295.992,168.75 300.626,173.384 300.626,179.101 C300.626,184.818 295.992,189.452 290.275,189.452 z" fill="#262A37"/>
        <path d="M290.244,185.489 C286.773,185.489 283.959,182.675 283.959,179.204 C283.959,175.733 286.773,172.919 290.244,172.919 C293.715,172.919 296.528,175.733 296.528,179.204 C296.528,182.675 293.715,185.489 290.244,185.489 z" fill="#DCDCDC"/>
        <path d="M290.203,180.934 C289.182,180.934 288.355,180.106 288.355,179.085 C288.355,178.064 289.182,177.237 290.203,177.237 C291.224,177.237 292.052,178.064 292.052,179.085 C292.052,180.106 291.224,180.934 290.203,180.934 z" fill="#262A37"/>
        <path d="M223.446,185.43 C219.975,185.43 217.162,182.616 217.162,179.145 C217.162,175.674 219.975,172.86 223.446,172.86 C226.917,172.86 229.731,175.674 229.731,179.145 C229.731,182.616 226.917,185.43 223.446,185.43 z" fill="#DCDCDC"/>
        <path d="M223.294,180.881 C222.273,180.881 221.445,180.054 221.445,179.033 C221.445,178.012 222.273,177.184 223.294,177.184 C224.315,177.184 225.142,178.012 225.142,179.033 C225.142,180.054 224.315,180.881 223.294,180.881 z" fill="#262A37"/>
        <path d="M231.353,169.22 C228.873,168.511 223.458,162.54 214.907,169.473 C214.625,169.701 211.544,170.136 213.356,167.749 C216.119,164.107 220.865,163.583 229.24,162.884 C250.25,161.13 281.816,164.398 289.253,161.532 C292.661,158.279 302.48,162.646 303.911,163.219 C304.369,165.279 303.51,162.552 297.759,167.774 C287.127,162.696 282.284,168.725 279.653,172.053 C272.53,167.304 246.409,173.521 231.353,169.22 z" fill="#FFC374" fill-opacity="0.637"/>
        <path d="M212.624,166.566 C210.497,168.922 206.417,167.201 206.463,166.369 C206.576,164.332 209.819,164.116 212.49,162.401 C215.681,160.352 229.246,159.141 231.169,159.387 C233.199,159.646 231.769,160.923 230.258,161.125 C225.676,161.736 219.913,162.233 217.595,163.14 C215.278,164.047 212.624,166.566 212.624,166.566 z" fill="#FFB860"/>
        <path d="M267.456,149.281 C264.465,149.14 255.492,149.316 256.513,148.542 C257.533,147.768 268.441,148.014 268.441,148.014 C268.441,148.014 292.334,147.455 295.424,149.515 C296.625,150.316 294.995,152.414 292.712,151.102 C289.211,149.088 270.447,149.422 267.456,149.281 z" fill="#FFB860"/>
        <path d="M206.876,166.677 C206.885,166.134 207.314,165.374 208.59,165.295 C210.007,165.208 212.035,165.119 212.752,165.103 C213.504,165.085 214.221,165.627 213.644,166.467 C213.246,167.046 211.983,167.796 210.968,167.831 C206.511,167.984 206.876,166.677 206.876,166.677 z" fill="#FFF9D7"/>
        <path d="M264.586,149.492 L266.36,149.956 L261.84,161.404 L259.475,161.404 z" fill="#FFA53D"/>
        <path d="M278.652,150.041 L280.764,150.083 L285.199,161.192 L283.13,161.277 z" fill="#FFA53D"/>
        <path d="M242.427,161.236 C240.717,161.626 239.961,161.417 239.961,160.324 C239.961,159.23 241.491,157.694 242.877,157.357 C244.671,156.921 245.852,157.887 245.475,158.698 C245.475,158.698 244.577,160.745 242.427,161.236 z" fill="#FFA53D"/>
      </g>
      <g>
        <path d="M233.083,54.919 L262.591,54.919 C264.443,54.919 265.944,56.206 265.944,57.793 L265.944,64.117 C265.944,65.704 264.443,66.991 262.591,66.991 L233.083,66.991 C231.231,66.991 229.729,65.704 229.729,64.117 L229.729,57.793 C229.729,56.206 231.231,54.919 233.083,54.919 z" fill="#A2CDFD"/>
        <path d="M262.591,52.919 C265.485,52.919 267.944,55.027 267.944,57.793 L267.944,64.117 C267.944,66.883 265.485,68.991 262.591,68.991 L233.083,68.991 C230.189,68.991 227.729,66.883 227.729,64.117 L227.729,57.793 C227.729,55.027 230.189,52.919 233.083,52.919 L262.591,52.919 z M262.591,54.919 L233.083,54.919 C231.231,54.919 229.729,56.206 229.729,57.793 L229.729,64.117 C229.729,65.704 231.231,66.991 233.083,66.991 L262.591,66.991 C264.443,66.991 265.944,65.704 265.944,64.117 L265.944,57.793 C265.944,56.206 264.443,54.919 262.591,54.919 z" fill="#A2CDFD"/>
      </g>
      <path d="M238.649,33.191 L257.024,33.191 C259.283,33.191 261.115,35.025 261.115,37.288 L261.115,45.994 C261.115,48.256 259.283,50.091 257.024,50.091 L238.649,50.091 C236.39,50.091 234.558,48.256 234.558,45.994 L234.558,37.288 C234.558,35.025 236.39,33.191 238.649,33.191 z" fill="#BBD8FC"/>
      <path d="M247.243,9.048 L247.243,9.048 C248.914,9.048 250.27,10.281 250.27,11.801 L250.27,25.608 C250.27,27.129 248.914,28.362 247.243,28.362 L247.243,28.362 C245.571,28.362 244.215,27.129 244.215,25.608 L244.215,11.801 C244.215,10.281 245.571,9.048 247.243,9.048 z" fill="#BBD8FC"/>
      <path d="M240.663,211.848 L276.072,211.848 C278.295,211.848 280.096,213.049 280.096,214.531 L280.096,218.823 C280.096,220.305 278.295,221.506 276.072,221.506 L240.663,221.506 C238.44,221.506 236.639,220.305 236.639,218.823 L236.639,214.531 C236.639,213.049 238.44,211.848 240.663,211.848 z" fill="#4CCEB1"/>
      <path d="M290.558,271.401 C284.78,271.401 280.096,266.717 280.096,260.939 C280.096,255.161 284.78,250.477 290.558,250.477 C296.336,250.477 301.02,255.161 301.02,260.939 C301.02,266.717 296.336,271.401 290.558,271.401 z" fill="#BDCEE0"/>
      <path d="M203.616,33.191 C194.727,33.191 187.521,25.984 187.521,17.095 C187.521,8.206 194.727,1 203.616,1 C212.505,1 219.712,8.206 219.712,17.095 C219.712,25.984 212.505,33.191 203.616,33.191 z" fill="#FFA500" fill-opacity="0.5"/>
      <path d="M66.153,250.477 C60.375,250.477 55.691,245.793 55.691,240.015 C55.691,234.237 60.375,229.553 66.153,229.553 C71.931,229.553 76.615,234.237 76.615,240.015 C76.615,245.793 71.931,250.477 66.153,250.477 z" fill="#D0DBEF"/>
    </g>
  </g>
</svg>
