<?xml version="1.0" encoding="UTF-8"?>
<!DOCTYPE svg PUBLIC "-//W3C//DTD SVG 1.1//EN" "http://www.w3.org/Graphics/SVG/1.1/DTD/svg11.dtd">
<svg version="1.1" xmlns="http://www.w3.org/2000/svg" xmlns:xlink="http://www.w3.org/1999/xlink" x="0" y="0" width="25" height="25" viewBox="0, 0, 25, 25">
  <g id="Usuario_-_Perfil">
    <g>
      <path d="M20.5,5 C21.436,5 22.105,5.458 22.373,6.194 C22.477,6.48 22.5,6.702 22.5,7 L22.5,18 C22.5,19.657 21.157,21 19.5,21 L5.5,21 C3.843,21 2.5,19.657 2.5,18 L2.5,11 C2.5,9.343 3.843,8 5.5,8 L13.5,8 C13.948,8 14.5,7.448 14.5,7 C14.5,6.705 14.52,6.495 14.616,6.218 C14.874,5.468 15.549,5 16.5,5 L20.5,5 z M20.5,6 L16.5,6 C15.5,6 15.5,6.74 15.5,7 C15.5,8 14.5,9 13.5,9 L5.5,9 C4.395,9 3.5,9.895 3.5,11 L3.5,18 C3.5,19.105 4.395,20 5.5,20 L19.5,20 C20.605,20 21.5,19.105 21.5,18 L21.5,7 C21.5,6.759 21.5,6 20.5,6 z" fill="#FFFFFF"/>
      <path d="M13,11 C14.933,11 16.5,12.567 16.5,14.5 C16.5,16.433 14.933,18 13,18 C11.067,18 9.5,16.433 9.5,14.5 C9.5,12.567 11.067,11 13,11 z M13,12 C11.619,12 10.5,13.119 10.5,14.5 C10.5,15.881 11.619,17 13,17 C14.381,17 15.5,15.881 15.5,14.5 C15.5,13.119 14.381,12 13,12 z" fill="#FFFFFF"/>
      <path d="M5.5,5 L9.5,5 C10.052,5 10.5,5.448 10.5,6 L10.5,6 C10.5,6.552 10.052,7 9.5,7 L5.5,7 C4.948,7 4.5,6.552 4.5,6 L4.5,6 C4.5,5.448 4.948,5 5.5,5 z" fill="#FFFFFF"/>
      <path d="M17.167,7 L19.833,7 C20.202,7 20.5,7.448 20.5,8 L20.5,8 C20.5,8.552 20.202,9 19.833,9 L17.167,9 C16.798,9 16.5,8.552 16.5,8 L16.5,8 C16.5,7.448 16.798,7 17.167,7 z" fill="#FFFFFF"/>
    </g>
  </g>
</svg>
