<?xml version="1.0" encoding="UTF-8"?>
<!DOCTYPE svg PUBLIC "-//W3C//DTD SVG 1.1//EN" "http://www.w3.org/Graphics/SVG/1.1/DTD/svg11.dtd">
<svg version="1.1" xmlns="http://www.w3.org/2000/svg" xmlns:xlink="http://www.w3.org/1999/xlink" x="0" y="0" width="45" height="45" viewBox="0, 0, 45, 45">
  <defs>
    <filter id="Shadow_1">
      <feGaussianBlur in="SourceAlpha" stdDeviation="1"/>
      <feOffset dx="0" dy="1" result="offsetblur"/>
      <feFlood flood-color="#545253"/>
      <feComposite in2="offsetblur" operator="in"/>
    </filter>
  </defs>
  <g id="Precio">
    <g>
      <g>
        <path d="M22.5,37.5 C14.216,37.5 7.5,30.784 7.5,22.5 C7.5,14.216 14.216,7.5 22.5,7.5 C30.784,7.5 37.5,14.216 37.5,22.5 C37.5,30.784 30.784,37.5 22.5,37.5 z" fill="#F8D253"/>
        <path d="M22.5,3.5 C32.993,3.5 41.5,12.007 41.5,22.5 C41.5,32.993 32.993,41.5 22.5,41.5 C12.007,41.5 3.5,32.993 3.5,22.5 C3.5,12.007 12.007,3.5 22.5,3.5 z M22.5,7.5 C14.216,7.5 7.5,14.216 7.5,22.5 C7.5,30.784 14.216,37.5 22.5,37.5 C30.784,37.5 37.5,30.784 37.5,22.5 C37.5,14.216 30.784,7.5 22.5,7.5 z" fill="#FFB500"/>
      </g>
      <g>
        <path d="M23.887,9.068 L23.887,11.719 Q25.483,11.976 26.497,12.774 Q27.512,13.572 28.432,15.222 L25.794,16.697 Q24.604,14.533 22.683,14.533 Q21.492,14.533 20.708,15.236 Q19.923,15.939 19.923,16.994 Q19.923,17.955 20.559,18.591 Q21.181,19.213 23.075,20.065 Q24.712,20.809 25.78,21.465 Q26.849,22.121 27.39,22.73 Q28.919,24.38 28.919,26.72 Q28.919,29.02 27.539,30.779 Q26.173,32.524 23.887,33.132 L23.887,35.932 L21.519,35.932 L21.519,33.213 Q18.868,32.781 17.475,31.387 Q16.082,29.994 15.419,27.086 L18.395,26.463 Q19.003,28.52 19.883,29.399 Q20.802,30.237 22.331,30.237 Q23.819,30.237 24.82,29.277 Q25.807,28.33 25.807,26.829 Q25.807,25.489 24.982,24.678 Q24.563,24.286 23.745,23.792 Q22.926,23.298 21.655,22.716 Q19.03,21.54 18.205,20.552 Q16.893,19.078 16.893,17.022 Q16.893,16.048 17.204,15.209 Q17.515,14.37 18.104,13.687 Q18.692,13.004 19.558,12.504 Q20.424,12.003 21.519,11.719 L21.519,9.068 L23.887,9.068 z" filter="url(#Shadow_1)" fill="rgba(0,0,0,0.25)"/>
        <path d="M23.887,9.068 L23.887,11.719 Q25.483,11.976 26.497,12.774 Q27.512,13.572 28.432,15.222 L25.794,16.697 Q24.604,14.533 22.683,14.533 Q21.492,14.533 20.708,15.236 Q19.923,15.939 19.923,16.994 Q19.923,17.955 20.559,18.591 Q21.181,19.213 23.075,20.065 Q24.712,20.809 25.78,21.465 Q26.849,22.121 27.39,22.73 Q28.919,24.38 28.919,26.72 Q28.919,29.02 27.539,30.779 Q26.173,32.524 23.887,33.132 L23.887,35.932 L21.519,35.932 L21.519,33.213 Q18.868,32.781 17.475,31.387 Q16.082,29.994 15.419,27.086 L18.395,26.463 Q19.003,28.52 19.883,29.399 Q20.802,30.237 22.331,30.237 Q23.819,30.237 24.82,29.277 Q25.807,28.33 25.807,26.829 Q25.807,25.489 24.982,24.678 Q24.563,24.286 23.745,23.792 Q22.926,23.298 21.655,22.716 Q19.03,21.54 18.205,20.552 Q16.893,19.078 16.893,17.022 Q16.893,16.048 17.204,15.209 Q17.515,14.37 18.104,13.687 Q18.692,13.004 19.558,12.504 Q20.424,12.003 21.519,11.719 L21.519,9.068 z" fill="#000000"/>
      </g>
    </g>
  </g>
</svg>
