<?xml version="1.0" encoding="UTF-8"?>
<!DOCTYPE svg PUBLIC "-//W3C//DTD SVG 1.1//EN" "http://www.w3.org/Graphics/SVG/1.1/DTD/svg11.dtd">
<svg version="1.1" xmlns="http://www.w3.org/2000/svg" xmlns:xlink="http://www.w3.org/1999/xlink" x="0" y="0" width="15" height="21" viewBox="0, 0, 15, 21">
  <g id="Punto_de_partida">
    <path d="M7.5,0.984 C11.149,0.984 14.107,3.871 14.107,7.432 C14.107,9.124 13.712,10.48 12.776,12.442 C11.854,14.372 11.971,14.058 10.924,15.909 C9.262,18.847 9.133,19.947 7.717,19.982 C6.347,20.016 6.254,19.268 5.57,18.266 C4.311,16.419 3.14,13.965 2.438,12.667 C1.693,11.29 0.893,9.103 0.893,7.432 C0.893,3.871 3.851,0.984 7.5,0.984 z M7.517,4.494 C5.74,4.494 4.3,5.935 4.3,7.712 C4.3,9.489 5.74,10.929 7.517,10.929 C9.294,10.929 10.734,9.489 10.734,7.712 C10.734,5.935 9.294,4.494 7.517,4.494 z" fill="#F11D4C"/>
  </g>
</svg>
