<?xml version="1.0" encoding="UTF-8"?>
<!DOCTYPE svg PUBLIC "-//W3C//DTD SVG 1.1//EN" "http://www.w3.org/Graphics/SVG/1.1/DTD/svg11.dtd">
<svg version="1.1" xmlns="http://www.w3.org/2000/svg" xmlns:xlink="http://www.w3.org/1999/xlink" x="0" y="0" width="55" height="55" viewBox="0, 0, 55, 55">
  <defs>
    <filter id="Shadow_1">
      <feGaussianBlur in="SourceAlpha" stdDeviation="1"/>
      <feOffset dx="0" dy="1" result="offsetblur"/>
      <feFlood flood-color="#545253"/>
      <feComposite in2="offsetblur" operator="in"/>
    </filter>
  </defs>
  <g id="Usuario_-_Perfil">
    <g>
      <g>
        <path d="M27.5,5 C39.926,5 50,15.074 50,27.5 C50,39.926 39.926,50 27.5,50 C15.074,50 5,39.926 5,27.5 C5,15.074 15.074,5 27.5,5 z" filter="url(#Shadow_1)" fill="rgba(0,0,0,0.25)"/>
        <path d="M27.5,50 C15.074,50 5,39.926 5,27.5 C5,15.074 15.074,5 27.5,5 C39.926,5 50,15.074 50,27.5 C50,39.926 39.926,50 27.5,50 z" fill="#4CCEB1"/>
      </g>
      <g>
        <path d="M28.094,37.75 C22.502,37.75 17.969,33.217 17.969,27.625 C17.969,22.033 22.502,17.5 28.094,17.5 C33.686,17.5 38.219,22.033 38.219,27.625 C38.219,33.217 33.686,37.75 28.094,37.75 z" fill="#FFFFFF"/>
        <path d="M28.094,37.75 C22.502,37.75 17.969,33.217 17.969,27.625 C17.969,22.033 22.502,17.5 28.094,17.5 C33.686,17.5 38.219,22.033 38.219,27.625 C38.219,33.217 33.686,37.75 28.094,37.75 z" fill-opacity="0" stroke="#FFFFFF" stroke-width="2" stroke-linecap="round" stroke-linejoin="round"/>
      </g>
      <g>
        <path d="M27.692,20.5 L27.692,20.5 C28.091,20.5 28.415,20.889 28.415,21.368 L28.415,28.311 C28.415,28.79 28.091,29.179 27.692,29.179 L27.692,29.179 C27.293,29.179 26.969,28.79 26.969,28.311 L26.969,21.368 C26.969,20.889 27.293,20.5 27.692,20.5 z" fill="#4CCEB1"/>
        <path d="M27.692,20.5 L27.692,20.5 C28.091,20.5 28.415,20.889 28.415,21.368 L28.415,28.311 C28.415,28.79 28.091,29.179 27.692,29.179 L27.692,29.179 C27.293,29.179 26.969,28.79 26.969,28.311 L26.969,21.368 C26.969,20.889 27.293,20.5 27.692,20.5 z" fill-opacity="0" stroke="#4CCEB1" stroke-width="1" stroke-linecap="round" stroke-linejoin="round"/>
      </g>
      <g>
        <path d="M33.617,28.723 L33.617,28.723 C33.617,29.123 33.319,29.446 32.952,29.446 L27.634,29.446 C27.266,29.446 26.969,29.123 26.969,28.723 L26.969,28.723 C26.969,28.324 27.266,28 27.634,28 L32.952,28 C33.319,28 33.617,28.324 33.617,28.723 z" fill="#4CCEB1"/>
        <path d="M33.617,28.723 L33.617,28.723 C33.617,29.123 33.319,29.446 32.952,29.446 L27.634,29.446 C27.266,29.446 26.969,29.123 26.969,28.723 L26.969,28.723 C26.969,28.324 27.266,28 27.634,28 L32.952,28 C33.319,28 33.617,28.324 33.617,28.723 z" fill-opacity="0" stroke="#4CCEB1" stroke-width="1" stroke-linecap="round" stroke-linejoin="round"/>
      </g>
    </g>
  </g>
</svg>
