<?xml version="1.0" encoding="UTF-8"?>
<!DOCTYPE svg PUBLIC "-//W3C//DTD SVG 1.1//EN" "http://www.w3.org/Graphics/SVG/1.1/DTD/svg11.dtd">
<svg version="1.1" xmlns="http://www.w3.org/2000/svg" xmlns:xlink="http://www.w3.org/1999/xlink" x="0" y="0" width="20" height="20" viewBox="0, 0, 20, 20">
  <g id="Nombre">
    <g>
      <path d="M16.721,18.713 C16.721,18.713 3.279,18.713 3.279,18.713 C2.454,18.713 1.785,18.044 1.785,17.219 L1.785,17.219 L1.785,17.219 C1.785,11.72 5.519,10.249 10,10.249 C14.481,10.249 18.215,11.72 18.215,17.219 L18.215,17.219 C18.215,18.044 17.546,18.713 16.721,18.713 z" fill="#808080"/>
      <path d="M10,1.287 C12.475,1.287 14.481,3.293 14.481,5.768 C14.481,8.243 12.475,10.249 10,10.249 C7.525,10.249 5.519,8.243 5.519,5.768 C5.519,3.293 7.525,1.287 10,1.287 z" fill="#808080"/>
    </g>
  </g>
</svg>
