<?xml version="1.0" encoding="UTF-8"?>
<!DOCTYPE svg PUBLIC "-//W3C//DTD SVG 1.1//EN" "http://www.w3.org/Graphics/SVG/1.1/DTD/svg11.dtd">
<svg version="1.1" xmlns="http://www.w3.org/2000/svg" xmlns:xlink="http://www.w3.org/1999/xlink" x="0" y="0" width="20" height="20" viewBox="0, 0, 20, 20">
  <g id="Nombre">
    <path d="M16.5,7.292 C17.397,7.292 18.125,8.019 18.125,8.917 C18.125,8.917 18.125,17.042 18.125,17.042 C18.125,17.939 17.397,18.667 16.5,18.667 C16.5,18.667 3.5,18.667 3.5,18.667 C2.603,18.667 1.875,17.939 1.875,17.042 C1.875,17.042 1.875,8.917 1.875,8.917 C1.875,8.019 2.603,7.292 3.5,7.292 L4.042,7.292 C4.042,4.001 6.709,1.333 10,1.333 C13.291,1.333 15.958,4.001 15.958,7.292 L16.5,7.292 z M13.792,7.292 C13.792,5.198 12.094,3.5 10,3.5 C7.906,3.5 6.208,5.198 6.208,7.292 L13.792,7.292 z M10,10.271 C8.953,10.271 8.104,11.12 8.104,12.167 C8.117,12.294 8.105,12.426 8.143,12.549 C8.313,13.107 8.601,13.644 9.188,13.843 L9.187,15.687 C9.188,15.688 10.813,15.688 10.812,15.687 L10.812,13.843 C10.895,13.808 10.99,13.795 11.06,13.739 C11.61,13.293 11.865,12.878 11.896,12.167 C11.896,11.12 11.047,10.271 10,10.271 z" fill="#808080"/>
  </g>
</svg>
