<svg width="44" height="24" viewBox="0 0 44 24" fill="none" xmlns="http://www.w3.org/2000/svg">
<path d="M3.99991 0H39.9999C41.9879 0 43.5999 1.791 43.5999 4V20C43.5999 22.209 41.9879 24 39.9999 24H3.99991C2.01191 24 0.399902 22.209 0.399902 20V4C0.399902 1.791 2.01191 0 3.99991 0Z" fill="#545253"/>
<path d="M7.8999 11.4C5.4149 11.4 3.3999 9.38502 3.3999 6.90002C3.3999 4.41502 5.4149 2.40002 7.8999 2.40002C10.3849 2.40002 12.3999 4.41502 12.3999 6.90002C12.3999 9.38502 10.3849 11.4 7.8999 11.4Z" fill="#F0F0F0"/>
<path d="M5.2 14.4H38.8C39.463 14.4 40 14.937 40 15.6C40 16.263 39.463 16.8 38.8 16.8H5.2C4.537 16.8 4 16.263 4 15.6C4 14.937 4.537 14.4 5.2 14.4Z" fill="#F0F0F0"/>
<path d="M5.2 18.6H38.8C39.463 18.6 40 19.137 40 19.8C40 20.463 39.463 21 38.8 21H5.2C4.537 21 4 20.463 4 19.8C4 19.137 4.537 18.6 5.2 18.6Z" fill="#F0F0F0"/>
<path d="M29.2 3H38.8C39.463 3 40 3.537 40 4.2C40 4.863 39.463 5.39999 38.8 5.39999H29.2C28.537 5.39999 28 4.863 28 4.2C28 3.537 28.537 3 29.2 3Z" fill="#F0F0F0"/>
</svg>
