<?xml version="1.0" encoding="UTF-8"?>
<!DOCTYPE svg PUBLIC "-//W3C//DTD SVG 1.1//EN" "http://www.w3.org/Graphics/SVG/1.1/DTD/svg11.dtd">
<svg version="1.1" xmlns="http://www.w3.org/2000/svg" xmlns:xlink="http://www.w3.org/1999/xlink" x="0" y="0" width="25" height="25" viewBox="0, 0, 25, 25">
  <g id="Nombre">
    <g>
      <path d="M3.237,5.263 C3.237,5.263 21.763,5.263 21.763,5.263 C22.722,5.263 23.5,6.041 23.5,7 C23.5,7 23.5,18 23.5,18 C23.5,18.959 22.722,19.737 21.763,19.737 C21.763,19.737 3.237,19.737 3.237,19.737 C2.278,19.737 1.5,18.959 1.5,18 C1.5,18 1.5,7 1.5,7 C1.5,6.041 2.278,5.263 3.237,5.263 z" fill="#808080"/>
      <g>
        <path d="M17.076,12.903 C17.189,13.016 17.301,13.129 17.414,13.241 C19.019,14.846 20.623,16.451 22.228,18.056 C22.341,18.169 22.341,18.352 22.228,18.465 C22.115,18.578 21.932,18.578 21.819,18.465 L21.804,18.45 C20.091,16.738 18.379,15.025 16.667,13.313 C16.553,13.2 16.553,13.016 16.667,12.903 C16.78,12.79 16.963,12.79 17.076,12.903 z z M8.333,12.903 C8.447,13.016 8.447,13.2 8.333,13.313 C6.621,15.025 4.908,16.738 3.196,18.45 L3.181,18.465 C3.068,18.578 2.885,18.578 2.772,18.465 C2.659,18.352 2.659,18.169 2.772,18.056 L2.786,18.041 C4.5,16.329 6.21,14.614 7.924,12.903 C8.037,12.79 8.22,12.79 8.333,12.903 z" fill="#FAF8FC"/>
        <path d="M16.754,11.892 L17.356,11.913 L17.783,12.196 L17.783,12.196 C17.915,12.328 17.915,12.328 18.046,12.46 L18.055,12.468 C20.495,14.908 19.461,13.874 21.158,15.571 C21.349,15.763 21.349,15.763 21.54,15.954 C22.238,16.651 22.238,16.651 22.935,17.348 C23.439,17.852 23.439,18.669 22.935,19.172 C22.432,19.676 21.615,19.676 21.112,19.172 C16.351,14.412 18.068,16.129 15.959,14.02 C15.456,13.516 15.456,12.7 15.959,12.196 C16.434,11.873 16.171,11.977 16.754,11.892 z M16.871,12.818 L16.667,12.903 C16.553,13.016 16.553,13.2 16.666,13.313 L21.819,18.465 C21.932,18.578 22.115,18.578 22.228,18.465 C22.341,18.352 22.341,18.169 22.228,18.056 C20.623,16.451 19.019,14.846 17.414,13.241 C17.301,13.129 17.189,13.016 17.076,12.903 L16.871,12.818 z M16.369,13.61 L16.369,13.61 L16.369,13.611 L16.369,13.61 z M8.012,11.892 L8.614,11.913 L9.04,12.196 C9.544,12.7 9.544,13.516 9.04,14.02 C7.747,15.313 6.724,16.336 4.408,18.652 C4.263,18.797 4.342,18.719 4.171,18.889 L3.904,19.156 L3.888,19.172 C3.385,19.676 2.568,19.676 2.065,19.172 C1.561,18.669 1.561,17.852 2.064,17.35 L2.08,17.333 C2.746,16.668 3.279,16.135 4.475,14.938 C4.477,14.936 4.477,14.936 4.479,14.934 C5.846,13.566 6.456,12.956 7.217,12.196 C7.692,11.873 7.428,11.977 8.012,11.892 z M8.129,12.818 L7.924,12.903 C6.21,14.614 4.5,16.329 2.786,18.041 L2.772,18.056 C2.659,18.169 2.659,18.352 2.772,18.465 C2.885,18.578 3.068,18.578 3.181,18.465 L3.196,18.45 C4.908,16.738 6.621,15.025 8.333,13.313 C8.447,13.2 8.447,13.016 8.333,12.903 L8.129,12.818 z" fill="#808080"/>
      </g>
      <g>
        <path d="M2.579,6.921 L13,14.447 L23.421,6.921" fill="#808080"/>
        <path d="M2.579,6.921 L13,14.447 L23.421,6.921" fill-opacity="0" stroke="#FAF8FC" stroke-width="1" stroke-linecap="round" stroke-linejoin="round"/>
      </g>
    </g>
  </g>
</svg>
