<svg width="82" height="190" viewBox="0 0 82 190" fill="none" xmlns="http://www.w3.org/2000/svg">
<path opacity="0.737" d="M76.3982 64.4193L70.6952 72.0163C70.6952 72.0163 66.6842 68.1973 63.1072 66.1073C61.4742 65.1533 65.0802 75.8272 57.6732 86.6162C53.3842 92.8632 65.2392 111.358 65.6692 112.68C67.0462 116.908 69.6452 135.476 66.2622 149.703C63.9522 159.417 56.5852 176.765 49.0832 180.077C46.5352 181.202 44.1572 188.478 38.7172 189.094C38.7892 186.671 31.7312 0.90625 39.1062 0.90625C46.4822 0.90625 48.5912 4.31325 48.5912 10.2222C48.5912 14.9482 52.6702 11.1383 52.3402 22.4503C52.2102 26.9033 81.1472 45.5232 81.1472 50.3402C81.1472 52.9792 70.5582 59.2342 62.5042 56.8662C59.8552 56.0862 76.3982 64.4193 76.3982 64.4193Z" fill="black" fill-opacity="0.1"/>
<path d="M38.8657 1.85784C44.3557 1.91384 45.5567 6.35684 45.5567 8.35384L45.3347 37.0078C45.3347 39.0048 43.6937 40.6238 41.6697 40.6238H35.9247C33.9007 40.6238 32.2607 39.0048 32.2607 37.0078V8.40084C32.2607 8.40084 32.8717 1.79684 38.8657 1.85784Z" fill="black"/>
<path d="M39.1391 10.1641C46.0521 10.1641 48.5731 14.8741 49.1631 18.3911C49.5951 20.9701 45.8491 59.2721 45.8491 59.2721C45.8491 60.9111 44.9831 62.2401 43.9141 62.2401H33.2011C32.1321 62.2401 31.2651 60.9111 31.2651 59.2721C31.2651 59.2721 27.7591 28.1441 28.8201 18.2581C29.3171 13.6331 32.4661 10.1641 39.1391 10.1641Z" fill="#808080"/>
<path d="M19.0118 68.941C15.0408 58.5271 53.7418 56.842 55.4268 69.958C57.1108 83.073 51.5758 83.434 57.2438 105.31C61.0818 114.598 19.8108 113.71 20.4118 105.31C22.9388 91.857 21.2548 80.065 19.0118 68.941Z" fill="#02283F"/>
<path d="M38.3081 177.914C24.7301 177.914 13.7241 157.236 13.7241 131.728C13.7241 106.22 24.7301 85.542 38.3081 85.542C51.8851 85.542 62.8921 106.22 62.8921 131.728C62.8921 157.236 51.8851 177.914 38.3081 177.914Z" fill="#A1A3A8"/>
<path d="M37.8618 180.074C31.5278 179.955 29.8808 172.375 29.8808 167.854C29.7638 164.995 33.9458 168.464 37.8618 168.464C41.7778 168.464 46.0948 165.563 46.5668 167.63C46.9988 169.523 45.3918 180.216 37.8618 180.074Z" fill="#F43E25"/>
<path d="M19.1639 137.272C19.6849 111.482 25.1459 93.6392 32.6429 87.9762C34.4239 86.6302 36.0259 87.1612 38.0679 87.1612C40.4499 87.1612 41.5309 86.3722 43.5989 88.0822C50.7619 94.0072 57.3259 112.118 57.2429 137.22C57.1729 158.33 48.9349 164.828 37.9449 164.073C16.0589 164.642 19.1639 137.272 19.1639 137.272Z" fill="#02283F"/>
<path d="M38.128 92.964C27.744 92.964 16.494 85.542 14.927 50.232C14.361 37.461 27.744 46.671 38.128 46.671C48.512 46.671 61.622 40.894 60.793 53.65C58.514 88.69 48.512 92.964 38.128 92.964Z" fill="#808080"/>
<path d="M56.6019 55.7949L71.5439 64.9529L68.9499 68.9409L54.2949 59.3799L56.6019 55.7949Z" fill="#02283F"/>
<path d="M19.2511 55.7949L4.30908 64.9529L6.90308 68.9409L21.5571 59.3799L19.2511 55.7949Z" fill="#02283F"/>
<path d="M38.11 92.9642C30.707 92.9642 22.687 84.8942 21.57 46.4992C21.166 32.6132 30.707 42.6272 38.11 42.6272C45.513 42.6272 54.86 36.3452 54.269 50.2162C52.644 88.3172 45.513 92.9642 38.11 92.9642Z" fill="#A1A3A8"/>
<path d="M38.2549 71.0488C35.4939 71.0488 33.2549 68.8098 33.2549 66.0488C33.2549 63.2878 35.4939 61.0488 38.2549 61.0488C41.0169 61.0488 43.2549 63.2878 43.2549 66.0488C43.2549 68.8098 41.0169 71.0488 38.2549 71.0488Z" fill="#02283F"/>
<path d="M38.2201 40.624C43.0251 40.703 47.0271 44.007 47.9851 48.703L56.9581 56.32L54.7711 59.474L45.9831 56.916C43.9751 59.315 41.3041 60.468 38.2201 60.624C35.2461 60.535 32.0571 59.288 30.3321 56.732L20.9131 59.474L18.7261 56.32L28.6121 47.929C29.5841 43.47 33.9401 40.841 38.2201 40.624Z" fill="#02283F" fill-opacity="0.752"/>
<path d="M34.577 47.6215C31.456 48.7485 28.022 50.2425 24.368 51.6175C21.7 52.6205 17.718 53.9185 15.369 54.5345C7.01597 56.7255 1.36197 55.8855 0.864966 53.3425C0.636966 52.1805 3.83197 48.4325 8.83597 43.4585C13.82 38.5045 19.754 32.1965 26.881 29.7865C29.602 28.8665 33.189 28.1085 35.879 28.1575C41.179 28.2545 45.812 28.4425 49.354 29.8275C52.164 30.9255 56.006 34.1735 68.91 45.3225L74.436 50.2395C76.911 52.4415 76.567 53.0105 74.364 53.6725C72.362 54.2745 65.532 55.1485 60.367 54.5895C58.032 54.3365 47.354 50.6915 42.335 48.2725C37.315 45.8525 37.697 46.4955 34.577 47.6215Z" fill="#02283F"/>
<path d="M38.3081 68.5488C36.9271 68.5488 35.8081 67.4298 35.8081 66.0488C35.8081 64.6678 36.9271 63.5488 38.3081 63.5488C39.6881 63.5488 40.8081 64.6678 40.8081 66.0488C40.8081 67.4298 39.6881 68.5488 38.3081 68.5488Z" fill="#808080"/>
<path opacity="0.405" d="M33.255 159.697C28.629 159.697 23.291 157.749 23.291 141.661C23.291 125.572 33.609 107.993 38.235 107.993C42.862 107.993 54.295 122.996 54.295 139.084C54.295 155.173 47.881 160.04 43.255 160.04L33.255 159.697Z" fill="white" fill-opacity="0.502"/>
<path opacity="0.777" d="M25.1471 44.7833C18.0691 44.7833 8.6001 50.9953 8.6001 50.0233C8.6001 49.0503 31.1721 34.7383 38.2511 34.7383C45.3291 34.7383 70.2171 49.8633 70.2171 50.8353C70.2171 51.8083 58.7601 43.4593 51.6811 43.4593L38.7971 39.1343L25.1471 44.7833Z" fill="white" fill-opacity="0.711"/>
<path d="M35.995 170.702C34.382 170.702 32.521 170.906 32.521 172.597C32.521 174.289 36.119 176.136 37.732 176.136C39.345 176.136 43.331 174.559 43.331 172.868C43.331 171.177 41.095 170.666 39.482 170.666L35.995 170.702Z" fill="white" fill-opacity="0.924"/>
</svg>
