<svg width="48" height="72" viewBox="0 0 48 72" fill="none" xmlns="http://www.w3.org/2000/svg">
<path d="M12.4942 13.612C13.1972 12.891 17.0802 12.442 21.7462 12.265C23.1952 12.21 21.0822 1.37305 26.1812 1.37305C28.3112 1.37305 28.9842 3.33505 29.1272 5.58905C29.1612 6.12705 31.1812 5.37305 32.1812 7.37305C33.1812 9.37305 32.7382 12.364 33.1812 12.373C38.7492 12.484 39.6662 12.784 40.4732 13.612C41.8932 15.405 42.7272 17.588 43.5252 19.712C44.6502 19.771 45.8272 19.851 46.8322 20.399C47.7012 21.12 47.7012 21.841 46.8322 22.562C45.9132 22.918 44.9972 22.146 44.2652 21.679C44.9972 23.712 45.8672 25.779 46.0692 27.949C46.0692 29.861 47.0022 58.535 46.0692 61.403C45.6582 62.667 44.5222 64.488 43.2202 66.212C42.8742 66.67 45.1812 67.373 43.1812 69.373C41.1812 70.373 40.4422 69.081 40.1812 69.373C39.1032 70.579 39.2722 70.621 38.6082 70.961C36.7432 71.917 16.2252 71.917 14.3592 70.961C13.8672 70.709 13.1792 70.189 12.4162 69.492C12.0042 69.114 11.7622 70.954 10.1812 69.373C8.18118 67.373 10.2172 67.199 9.77718 66.644C8.46318 64.988 7.31318 63.101 6.89818 61.403C5.96618 57.58 6.89818 29.861 6.89818 27.949C7.15718 25.783 7.93818 23.711 8.70318 21.679C7.84918 22.197 7.21518 22.845 6.13618 22.562C5.35518 21.851 5.32918 21.535 5.85118 20.669L6.13618 20.399C7.10718 19.84 8.34618 19.753 9.44218 19.712C10.2572 17.602 11.0512 15.385 12.4942 13.612Z" fill="#1E2126" fill-opacity="0.096"/>
<path d="M4.51611 48.3223C4.51611 48.3223 0.516113 48.3223 0.516113 51.6553C0.516113 54.9893 0.516113 51.6553 0.516113 54.9893C0.516113 58.3223 4.51611 58.3223 4.51611 58.3223V48.3223Z" fill="#1E2126"/>
<path d="M22.5161 0.322266C23.8971 0.322266 25.0161 1.44127 25.0161 2.82227V7.82227C25.0161 9.20327 23.8971 10.3223 22.5161 10.3223C21.1351 10.3223 20.0161 9.20327 20.0161 7.82227V2.82227C20.0161 1.44127 21.1351 0.322266 22.5161 0.322266Z" fill="black"/>
<path d="M22.5161 4.32227C25.2781 4.32227 27.5161 6.18727 27.5161 8.48927V25.1553C27.5161 27.4573 25.2781 29.3223 22.5161 29.3223C19.7551 29.3223 17.5161 27.4573 17.5161 25.1553V8.48927C17.5161 6.18727 19.7551 4.32227 22.5161 4.32227Z" fill="#19201C"/>
<path d="M40.5161 48.3223C40.5161 48.3223 44.5161 48.3223 44.5161 51.6553C44.5161 54.9893 44.5161 51.6553 44.5161 54.9893C44.5161 58.3223 40.5161 58.3223 40.5161 58.3223V48.3223Z" fill="#1E2126"/>
<path d="M22.5161 14.3223C21.5161 14.3223 17.5161 14.0833 17.5161 11.3223C17.5161 8.56127 18.5161 8.32227 22.5161 8.32227C26.5161 8.32227 27.5161 8.56127 27.5161 11.3223C27.5161 14.0833 23.5161 14.3223 22.5161 14.3223Z" fill="black"/>
<path d="M8.52591 12.2563C10.3919 10.3443 34.6409 10.3443 36.5059 12.2563C37.9249 14.0493 38.7589 16.2323 39.5579 18.3563C40.6829 18.4153 41.8589 18.4953 42.8639 19.0433C43.7339 19.7643 43.7339 20.4853 42.8639 21.2063C41.9459 21.5623 41.0289 20.7903 40.2969 20.3233C41.0289 22.3563 41.8999 24.4233 42.1019 26.5933C42.1019 28.5053 43.0339 57.1793 42.1019 60.0473C41.1689 62.9143 36.5059 68.6493 34.6409 69.6053C32.7749 70.5613 12.2569 70.5613 10.3919 69.6053C8.52691 68.6493 3.86291 63.8703 2.93091 60.0473C1.99791 56.2243 2.93091 28.5053 2.93091 26.5933C3.18891 24.4273 3.97091 22.3553 4.73491 20.3233C3.88091 20.8413 3.24791 21.4893 2.16791 21.2063C1.38691 20.4953 1.36091 20.1793 1.88291 19.3133L2.16791 19.0433C3.13891 18.4843 4.37891 18.3973 5.47391 18.3563C6.28891 16.2463 7.08291 14.0293 8.52591 12.2563Z" fill="#1E2126"/>
<path d="M9.09511 14.3223C10.8851 12.3223 34.1481 12.3223 35.9371 14.3223C37.7271 16.3223 41.5161 26.3223 41.5161 26.3223C41.5161 26.3223 37.7271 21.3223 35.9371 20.3223C34.1481 19.3223 10.8851 19.3223 9.09511 20.3223C7.30611 21.3223 3.51611 26.3223 3.51611 26.3223C3.51611 26.3223 7.30611 16.3223 9.09511 14.3223Z" fill="url(#paint0_linear)"/>
<path d="M11.1831 67.5983C13.0721 68.5633 31.9611 68.5633 33.8491 67.5983C35.7381 66.6323 39.5161 61.3223 39.5161 61.3223C39.5161 61.3223 37.6271 62.7703 35.7381 63.7363C33.8491 64.7013 11.1831 64.7013 9.29411 63.7363C7.40511 62.7703 5.51611 61.3223 5.51611 61.3223C5.51611 61.3223 9.29411 66.6323 11.1831 67.5983Z" fill="url(#paint1_linear)"/>
<path d="M4.01611 28.8223C4.01611 28.8223 9.59511 22.8223 14.9641 22.8223C20.3321 22.8223 27.4901 22.8223 31.0691 22.8223C36.4371 22.8223 42.0161 28.8223 42.0161 28.8223" stroke="#808080" stroke-linecap="round" stroke-linejoin="round"/>
<path d="M4.01611 56.8223C4.01611 56.8223 9.59511 62.8223 14.9641 62.8223C20.3321 62.8223 27.4901 62.8223 31.0691 62.8223C36.4371 62.8223 42.0161 56.8223 42.0161 56.8223" stroke="#808080" stroke-linecap="round" stroke-linejoin="round"/>
<path d="M38.0161 28.8223C38.0161 28.8223 37.0161 31.4583 37.0161 43.7613C37.0161 56.0643 38.0161 57.8223 38.0161 57.8223" stroke="#808080" stroke-linecap="round" stroke-linejoin="round"/>
<path d="M8.01611 28.8223C8.01611 28.8223 9.01611 31.4583 9.01611 43.7613C9.01611 56.0643 8.01611 57.8223 8.01611 57.8223" stroke="#808080" stroke-linecap="round" stroke-linejoin="round"/>
<path d="M39.5161 28.3223L41.5161 29.3223C41.5161 29.3223 42.5161 50.3223 41.5161 53.3223C40.5161 55.3223 39.5161 56.3223 39.5161 56.3223C39.5161 56.3223 37.5161 51.3223 37.5161 42.3223C37.5161 33.3223 39.5161 28.3223 39.5161 28.3223Z" fill="url(#paint2_linear)"/>
<path d="M5.57031 28.3223L3.57031 29.3223C3.57031 29.3223 2.51631 50.3223 3.51631 53.3223C3.65731 53.7443 5.57031 56.3223 5.57031 56.3223C5.57031 56.3223 7.57031 51.3223 7.57031 42.3223C7.57031 33.3223 5.57031 28.3223 5.57031 28.3223Z" fill="url(#paint3_linear)"/>
<path d="M7.589 66.184C8.141 67.141 8.873 67.752 8.156 68.166C7.438 68.58 6.409 68.141 5.857 67.184C5.304 66.227 5.438 65.116 6.156 64.702C6.873 64.288 7.036 65.227 7.589 66.184Z" fill="#E5423D"/>
<path d="M37.3812 66.184C36.8292 67.141 36.0972 67.752 36.8142 68.166C37.5322 68.58 38.5612 68.141 39.1142 67.184C39.6662 66.227 39.5322 65.116 38.8142 64.702C38.0972 64.288 37.9342 65.227 37.3812 66.184Z" fill="#E5423D"/>
<path d="M22.7091 8.62164C19.7871 8.67964 19.8041 8.72164 19.8391 8.65164C20.1161 7.55164 20.8981 7.43164 22.6931 7.43164C24.5281 7.43164 25.3051 7.55664 25.5661 8.72564C25.5461 8.73864 22.7091 8.62164 22.7091 8.62164Z" fill="#F59E18"/>
<path d="M38.3062 42.9145L42.0162 42.7305" stroke="#1E2126" stroke-width="1.5" stroke-linecap="square"/>
<path d="M7.68314 42.7299L3.97314 42.5469" stroke="#1E2126" stroke-width="1.5" stroke-linecap="square"/>
<path d="M30.0161 28.8223V58.8223" stroke="#808080" stroke-width="1.5" stroke-linecap="round" stroke-linejoin="round"/>
<path d="M15.0161 28.8223V58.8223" stroke="#808080" stroke-width="1.5" stroke-linecap="round" stroke-linejoin="round"/>
<path d="M23.0161 26.8223V59.8223" stroke="#808080" stroke-width="1.5" stroke-linecap="round" stroke-linejoin="round"/>
<path d="M36.0161 21.8223L37.0161 14.8223" stroke="#1E2126" stroke-width="0.8" stroke-linecap="round" stroke-linejoin="round"/>
<path d="M10.0161 20.8223L9.01611 13.8223" stroke="#1E2126" stroke-width="0.8" stroke-linecap="round" stroke-linejoin="round"/>
<defs>
<linearGradient id="paint0_linear" x1="3.51611" y1="19.5723" x2="41.5161" y2="19.5723" gradientUnits="userSpaceOnUse">
<stop stop-color="white"/>
<stop offset="1" stop-color="#BABABA"/>
</linearGradient>
<linearGradient id="paint1_linear" x1="5.51611" y1="64.8223" x2="39.5161" y2="64.8223" gradientUnits="userSpaceOnUse">
<stop stop-color="#BABABA"/>
<stop offset="1" stop-color="white"/>
</linearGradient>
<linearGradient id="paint2_linear" x1="37.5161" y1="42.3223" x2="41.9611" y2="42.3223" gradientUnits="userSpaceOnUse">
<stop stop-color="white"/>
<stop offset="1" stop-color="#BABABA"/>
</linearGradient>
<linearGradient id="paint3_linear" x1="7.57031" y1="42.3223" x2="3.08531" y2="42.3223" gradientUnits="userSpaceOnUse">
<stop stop-color="white"/>
<stop offset="1" stop-color="#BABABA"/>
</linearGradient>
</defs>
</svg>
