<svg width="48" height="48" viewBox="0 0 48 48" fill="none" xmlns="http://www.w3.org/2000/svg">
<g filter="url(#filter0_f)">
<path d="M24 5C34.493 5 43 13.507 43 24C43 34.493 34.493 43 24 43C13.507 43 5 34.493 5 24C5 13.507 13.507 5 24 5ZM14.459 35.575C10.927 32.558 9.231 28.577 9 24C9.267 17.602 11.715 14.278 16.85 10.81C11.916 13.676 9.284 18.362 9 24C9.266 30.398 11.716 33.723 16.85 37.19L14.459 35.575Z" fill="black" fill-opacity="0.25"/>
</g>
<path d="M24 39C15.716 39 9 32.284 9 24C9 15.716 15.716 9 24 9C32.284 9 39 15.716 39 24C39 32.284 32.284 39 24 39Z" fill="#F8D253"/>
<path d="M24 5C34.493 5 43 13.507 43 24C43 34.493 34.493 43 24 43C13.507 43 5 34.493 5 24C5 13.507 13.507 5 24 5ZM24 9C15.716 9 9 15.716 9 24C9 32.284 15.716 39 24 39C32.284 39 39 32.284 39 24C39 15.716 32.284 9 24 9Z" fill="#FFB500"/>
<g filter="url(#filter1_f)">
<path d="M25.3869 10.568V13.219C26.4509 13.3903 27.3209 13.742 27.9969 14.274C28.6736 14.806 29.3186 15.622 29.9319 16.722L27.2939 18.197C26.4999 16.7544 25.463 16.033 24.183 16.033C23.389 16.033 22.7306 16.2674 22.2079 16.736C21.6846 17.2047 21.4229 17.791 21.4229 18.495C21.4229 19.135 21.6349 19.667 22.0589 20.091C22.4736 20.5057 23.3123 20.997 24.575 21.565C25.6663 22.061 26.5679 22.5277 27.2799 22.965C27.9926 23.4024 28.5293 23.824 28.89 24.23C29.9093 25.33 30.4189 26.66 30.4189 28.22C30.4189 29.7533 29.9589 31.1063 29.0389 32.279C28.1283 33.4423 26.9109 34.2267 25.3869 34.632V37.432H23.019V34.713C21.2516 34.425 19.9036 33.8164 18.9749 32.887C18.0456 31.9584 17.3603 30.5247 16.9189 28.586L19.8949 27.963C20.3003 29.3343 20.7963 30.313 21.3829 30.899C21.9956 31.4577 22.8116 31.737 23.8309 31.737C24.8229 31.737 25.6526 31.417 26.3199 30.777C26.9779 30.1456 27.3069 29.3296 27.3069 28.329C27.3069 27.4363 27.0319 26.7193 26.4819 26.178C26.2026 25.9166 25.7903 25.6213 25.2449 25.292C24.6989 24.9627 24.0023 24.604 23.1549 24.216C21.4049 23.432 20.2549 22.7107 19.7049 22.052C18.8303 21.0693 18.3929 19.8926 18.3929 18.522C18.3929 17.8726 18.4966 17.2683 18.7039 16.709C18.9113 16.1497 19.2113 15.6423 19.6039 15.187C19.9959 14.7317 20.4806 14.337 21.058 14.003C21.6353 13.6697 22.289 13.4083 23.019 13.219V10.568H25.3869Z" fill="black" fill-opacity="0.25"/>
</g>
<path d="M25.3869 10.568V13.219C26.4509 13.3903 27.3209 13.742 27.9969 14.274C28.6736 14.806 29.3186 15.622 29.9319 16.722L27.2939 18.197C26.4999 16.7544 25.463 16.033 24.183 16.033C23.389 16.033 22.7306 16.2674 22.2079 16.736C21.6846 17.2047 21.4229 17.791 21.4229 18.495C21.4229 19.135 21.6349 19.667 22.0589 20.091C22.4736 20.5057 23.3123 20.997 24.575 21.565C25.6663 22.061 26.5679 22.5277 27.2799 22.965C27.9926 23.4024 28.5293 23.824 28.89 24.23C29.9093 25.33 30.4189 26.66 30.4189 28.22C30.4189 29.7533 29.9589 31.1063 29.0389 32.279C28.1283 33.4423 26.9109 34.2267 25.3869 34.632V37.432H23.019V34.713C21.2516 34.425 19.9036 33.8164 18.9749 32.887C18.0456 31.9584 17.3603 30.5247 16.9189 28.586L19.8949 27.963C20.3003 29.3343 20.7963 30.313 21.3829 30.899C21.9956 31.4577 22.8116 31.737 23.8309 31.737C24.8229 31.737 25.6526 31.417 26.3199 30.777C26.9779 30.1456 27.3069 29.3296 27.3069 28.329C27.3069 27.4363 27.0319 26.7193 26.4819 26.178C26.2026 25.9166 25.7903 25.6213 25.2449 25.292C24.6989 24.9627 24.0023 24.604 23.1549 24.216C21.4049 23.432 20.2549 22.7107 19.7049 22.052C18.8303 21.0693 18.3929 19.8926 18.3929 18.522C18.3929 17.8726 18.4966 17.2683 18.7039 16.709C18.9113 16.1497 19.2113 15.6423 19.6039 15.187C19.9959 14.7317 20.4806 14.337 21.058 14.003C21.6353 13.6697 22.289 13.4083 23.019 13.219V10.568H25.3869Z" fill="white"/>
<defs>
<filter id="filter0_f" x="0" y="0" width="48" height="48" filterUnits="userSpaceOnUse" color-interpolation-filters="sRGB">
<feFlood flood-opacity="0" result="BackgroundImageFix"/>
<feBlend mode="normal" in="SourceGraphic" in2="BackgroundImageFix" result="shape"/>
<feGaussianBlur stdDeviation="2.5" result="effect1_foregroundBlur"/>
</filter>
<filter id="filter1_f" x="14.9189" y="8.56799" width="17.5" height="30.864" filterUnits="userSpaceOnUse" color-interpolation-filters="sRGB">
<feFlood flood-opacity="0" result="BackgroundImageFix"/>
<feBlend mode="normal" in="SourceGraphic" in2="BackgroundImageFix" result="shape"/>
<feGaussianBlur stdDeviation="1" result="effect1_foregroundBlur"/>
</filter>
</defs>
</svg>
