<svg width="25" height="34" viewBox="0 0 25 34" fill="none" xmlns="http://www.w3.org/2000/svg">
<path d="M2.68793 2.84302C1.39493 3.78802 -2.30106 8.98902 4.38294 20.908C11.4259 33.467 18.2709 33.016 19.6469 32.185L14.8929 23.951C13.7429 24.615 12.788 23.497 11.032 21.064C9.87495 19.449 8.60393 17.369 7.60993 15.137C6.92193 13.568 6.35995 11.971 7.56595 11.274L2.68793 2.84302Z" fill="#F8D253"/>
<path d="M2.68793 2.84302C1.39493 3.78802 -2.30106 8.98902 4.38294 20.908C11.4259 33.467 18.2709 33.016 19.6469 32.185L14.8929 23.951C13.7429 24.615 12.788 23.497 11.032 21.064C9.87495 19.449 8.60393 17.369 7.60993 15.137C6.92193 13.568 6.35995 11.971 7.56595 11.274L2.68793 2.84302Z" stroke="#FFB500"/>
<path d="M11.3681 9.08C11.9011 8.773 12.0341 8.119 11.7531 7.632L11.7601 7.62798C11.7601 7.62798 7.94007 1.02896 7.93607 1.02196C7.64307 0.513957 7.00007 0.353967 6.49707 0.643967L4.16406 1.99101L9.03506 10.428L11.3661 9.09099L11.3681 9.08Z" fill="#F8D253"/>
<path d="M11.3681 9.08C11.9011 8.773 12.0341 8.119 11.7531 7.632L11.7601 7.62798C11.7601 7.62798 7.94007 1.02896 7.93607 1.02196C7.64307 0.513957 7.00007 0.353967 6.49707 0.643967L4.16406 1.99101L9.03506 10.428L11.3661 9.09099L11.3681 9.08Z" stroke="#FFB500"/>
<path d="M23.4521 30.0089C23.9841 29.7019 24.1171 29.0479 23.8361 28.5609L23.8391 28.55C23.8391 28.55 20.1291 22.1409 20.1251 22.1339C19.8321 21.6259 19.1891 21.465 18.6861 21.755L16.3521 23.103L21.1181 31.357C21.1181 31.357 23.4501 30.02 23.4461 30.013L23.4521 30.0089Z" fill="#F8D253"/>
<path d="M23.4521 30.0089C23.9841 29.7019 24.1171 29.0479 23.8361 28.5609L23.8391 28.55C23.8391 28.55 20.1291 22.1409 20.1251 22.1339C19.8321 21.6259 19.1891 21.465 18.6861 21.755L16.3521 23.103L21.1181 31.357C21.1181 31.357 23.4501 30.02 23.4461 30.013L23.4521 30.0089Z" stroke="#FFB500"/>
</svg>
