<?xml version="1.0" encoding="UTF-8"?>
<!DOCTYPE svg PUBLIC "-//W3C//DTD SVG 1.1//EN" "http://www.w3.org/Graphics/SVG/1.1/DTD/svg11.dtd">
<svg version="1.1" xmlns="http://www.w3.org/2000/svg" xmlns:xlink="http://www.w3.org/1999/xlink" x="0" y="0" width="20" height="20" viewBox="0, 0, 20, 20">
  <g id="Nombre">
    <g>
      <path d="M4.714,2.431 C3.999,2.953 1.954,5.831 5.652,12.427 C9.55,19.376 13.337,19.127 14.099,18.667 L11.468,14.111 C10.832,14.478 10.303,13.86 9.332,12.513 C8.691,11.62 7.988,10.469 7.438,9.233 C7.057,8.365 6.746,7.482 7.414,7.096 L4.714,2.431 z" fill="#808080"/>
      <path d="M9.518,5.882 C9.813,5.712 9.886,5.35 9.73,5.081 L9.734,5.078 C9.734,5.078 7.621,1.427 7.619,1.423 C7.456,1.142 7.1,1.053 6.822,1.213 L5.531,1.959 L8.226,6.628 L9.517,5.888 L9.518,5.882 z" fill="#808080"/>
      <path d="M16.204,17.463 C16.499,17.293 16.572,16.931 16.417,16.662 L16.419,16.656 C16.419,16.656 14.366,13.109 14.363,13.105 C14.201,12.824 13.845,12.735 13.567,12.896 L12.276,13.642 L14.913,18.209 C14.913,18.209 16.203,17.469 16.201,17.465 L16.204,17.463 z" fill="#808080"/>
    </g>
  </g>
</svg>
