<?xml version="1.0" encoding="UTF-8"?>
<!DOCTYPE svg PUBLIC "-//W3C//DTD SVG 1.1//EN" "http://www.w3.org/Graphics/SVG/1.1/DTD/svg11.dtd">
<svg version="1.1" xmlns="http://www.w3.org/2000/svg" xmlns:xlink="http://www.w3.org/1999/xlink" x="0" y="0" width="55" height="55" viewBox="0, 0, 55, 55">
  <defs>
    <filter id="Shadow_1">
      <feGaussianBlur in="SourceAlpha" stdDeviation="1"/>
      <feOffset dx="0" dy="1" result="offsetblur"/>
      <feFlood flood-color="#545253"/>
      <feComposite in2="offsetblur" operator="in"/>
    </filter>
  </defs>
  <g id="Usuario_-_Perfil">
    <g>
      <g>
        <path d="M27.5,5 C39.926,5 50,15.074 50,27.5 C50,39.926 39.926,50 27.5,50 C15.074,50 5,39.926 5,27.5 C5,15.074 15.074,5 27.5,5 z" filter="url(#Shadow_1)" fill="rgba(0,0,0,0.25)"/>
        <path d="M27.5,50 C15.074,50 5,39.926 5,27.5 C5,15.074 15.074,5 27.5,5 C39.926,5 50,15.074 50,27.5 C50,39.926 39.926,50 27.5,50 z" fill="#017DFF"/>
      </g>
      <g>
        <path d="M15,18.5 L40,18.5 C41.381,18.5 42.5,19.843 42.5,21.5 L42.5,33.5 C42.5,35.157 41.381,36.5 40,36.5 L15,36.5 C13.619,36.5 12.5,35.157 12.5,33.5 L12.5,21.5 C12.5,19.843 13.619,18.5 15,18.5 z" fill="#FFFFFF"/>
        <path d="M40,18.5 C41.381,18.5 42.5,19.843 42.5,21.5 L42.5,33.5 C42.5,35.157 41.381,36.5 40,36.5 L15,36.5 C13.619,36.5 12.5,35.157 12.5,33.5 L12.5,21.5 C12.5,19.843 13.619,18.5 15,18.5 L40,18.5 z M40,20 L15,20 C14.514,20 14,20.617 14,21.5 L14,33.5 C14,34.383 14.514,35 15,35 L40,35 C40.486,35 41,34.383 41,33.5 L41,21.5 C41,20.617 40.486,20 40,20 z" fill="#FFFFFF"/>
      </g>
      <path d="M18.875,26.75 C17.425,26.75 16.25,25.575 16.25,24.125 C16.25,22.675 17.425,21.5 18.875,21.5 C20.325,21.5 21.5,22.675 21.5,24.125 C21.5,25.575 20.325,26.75 18.875,26.75 z" fill="#017DFF"/>
      <path d="M17.75,29.75 L38.75,29.75 C39.164,29.75 39.5,30.422 39.5,31.25 L39.5,31.25 C39.5,32.078 39.164,32.75 38.75,32.75 L17.75,32.75 C17.336,32.75 17,32.078 17,31.25 L17,31.25 C17,30.422 17.336,29.75 17.75,29.75 z" fill="#017DFF"/>
      <path d="M32.075,22.25 L38.675,22.25 C39.131,22.25 39.5,22.754 39.5,23.375 L39.5,23.375 C39.5,23.996 39.131,24.5 38.675,24.5 L32.075,24.5 C31.619,24.5 31.25,23.996 31.25,23.375 L31.25,23.375 C31.25,22.754 31.619,22.25 32.075,22.25 z" fill="#017DFF"/>
    </g>
  </g>
</svg>
