<?xml version="1.0" encoding="UTF-8"?>
<!DOCTYPE svg PUBLIC "-//W3C//DTD SVG 1.1//EN" "http://www.w3.org/Graphics/SVG/1.1/DTD/svg11.dtd">
<svg version="1.1" xmlns="http://www.w3.org/2000/svg" xmlns:xlink="http://www.w3.org/1999/xlink" x="0" y="0" width="20" height="20" viewBox="0, 0, 20, 20">
  <g id="Punto_de_partida">
    <g>
      <path d="M10,14.5 C7.515,14.5 5.5,12.485 5.5,10 C5.5,7.515 7.515,5.5 10,5.5 C12.485,5.5 14.5,7.515 14.5,10 C14.5,12.485 12.485,14.5 10,14.5 z" fill="#4CCEB1"/>
      <path d="M10,0.5 C15.247,0.5 19.5,4.753 19.5,10 C19.5,15.247 15.247,19.5 10,19.5 C4.753,19.5 0.5,15.247 0.5,10 C0.5,4.753 4.753,0.5 10,0.5 z M10,2.5 C5.858,2.5 2.5,5.858 2.5,10 C2.5,14.142 5.858,17.5 10,17.5 C14.142,17.5 17.5,14.142 17.5,10 C17.5,5.858 14.142,2.5 10,2.5 z" fill="#4CCEB1"/>
    </g>
  </g>
</svg>
