<svg width="64" height="150" viewBox="0 0 64 150" fill="none" xmlns="http://www.w3.org/2000/svg">
<path opacity="0.15" d="M33.8453 149.998C23.8393 150.118 12.1543 145.711 10.2993 139.184C9.67433 136.986 9.21133 132.722 7.74033 128.051C5.56833 121.16 6.90833 116.437 6.90833 110.775C6.90833 97.974 7.23433 90.428 7.23433 79.986C7.23433 55.332 9.13033 47.272 8.18233 41.108C7.00833 33.479 6.36133 26.404 8.65633 20.721C13.3163 9.17798 27.9753 4.12598 34.7333 4.12598C43.7413 4.12598 56.7803 9.35098 61.2843 19.298C64.2213 25.786 63.6553 30.677 62.2323 42.056C60.9633 52.214 62.9433 61.495 62.7063 78.09C62.5353 90.067 62.5283 105.976 63.4063 114.767C63.6843 117.545 62.7743 122.026 62.4333 125.488C62.0033 129.85 61.0853 136.37 58.3303 141.783C56.8133 144.761 52.3823 146.243 49.4093 147.611C44.9123 149.679 39.1563 149.934 33.8453 149.998Z" fill="black" fill-opacity="0.709"/>
<path d="M27.6321 145.871C17.6261 145.992 5.94112 141.584 4.08612 135.058C3.46112 132.86 2.99812 128.596 1.52612 123.925C-0.644878 117.033 0.695122 112.311 0.695122 106.649C0.695122 93.848 1.02012 86.302 1.02012 75.86C1.02012 51.206 2.91712 43.145 1.96912 36.982C0.795122 29.353 0.148122 22.278 2.44312 16.594C7.10312 5.052 21.7621 0 28.5201 0C37.5281 0 50.5671 5.225 55.0711 15.172C58.0081 21.659 57.4411 26.551 56.0191 37.93C54.7491 48.087 56.7301 57.369 56.4931 73.964C56.3221 85.941 56.3151 101.85 57.1931 110.641C57.4711 113.419 56.5611 117.9 56.2201 121.361C55.7901 125.724 54.8721 132.244 52.1161 137.656C50.6001 140.635 46.1691 142.117 43.1961 143.484C38.6981 145.553 32.9421 145.807 27.6321 145.871Z" fill="#8C8B8D"/>
<path d="M6.56201 39.1748C5.91601 33.7958 10.458 32.5108 11.887 31.9128C14.846 30.6758 17.535 29.0078 28.617 29.0078C39.165 29.0078 43.894 30.7298 46.745 32.1278C51.96 34.6858 51.748 37.3458 51.21 40.4658C50.567 44.1948 47.714 59.0248 47.714 59.0248C47.714 59.0248 35.234 57.6798 28.832 57.8408C23.233 57.9828 9.89701 58.7558 9.89701 58.7558C9.89701 58.7558 6.91601 42.1298 6.56201 39.1748Z" fill="url(#paint0_linear)"/>
<path d="M9.83522 108.372C9.83522 108.372 20.6382 109.873 29.1382 109.804C37.3592 109.736 47.5742 108.218 47.5742 108.218L49.9752 128.464C49.9752 128.464 44.9252 134.875 29.5222 134.943C13.1782 135.016 7.42822 128.728 7.42822 128.728L9.83522 108.372Z" fill="url(#paint1_linear)"/>
<path d="M48.5822 66.4936C48.9512 60.2236 51.0872 50.3186 52.4652 44.5566C52.8322 43.0226 53.1602 41.8016 53.4392 40.9986C53.4392 40.9986 54.0032 38.8746 54.0352 41.2246C54.0852 41.9746 54.2032 43.9306 54.2032 43.9306L54.6772 64.4956L54.5712 104.884C54.5712 104.884 53.3662 114.492 51.9902 115.991C51.5952 116.423 51.4072 115.227 50.9732 112.736C50.1032 107.746 48.9932 98.5196 48.7362 95.1676C48.3512 90.1416 48.0872 74.9106 48.5822 66.4936Z" fill="url(#paint2_linear)"/>
<path d="M8.81229 66.4936C8.44329 60.2236 6.30729 50.3186 4.92929 44.5566C4.56229 43.0226 4.23429 41.8016 3.95529 40.9986C3.95529 40.9986 3.39129 38.8746 3.35929 41.2246C3.30929 41.9746 3.19129 43.9306 3.19129 43.9306L2.71729 64.4956L2.82329 104.884C2.82329 104.884 4.02829 114.492 5.40429 115.991C5.79929 116.423 5.98728 115.227 6.42128 112.736C7.29128 107.746 8.40129 98.5196 8.65829 95.1676C9.04329 90.1416 9.30729 74.9106 8.81229 66.4936Z" fill="url(#paint3_linear)"/>
<path d="M54.166 17.8436C53.714 18.0836 51.22 14.4686 48.891 11.2846C46.135 7.51663 45.192 6.79663 44.538 5.48863C43.418 3.24863 52.907 10.4056 53.762 14.2316C53.762 14.2316 54.927 17.4396 54.166 17.8436Z" fill="#FEA524"/>
<path d="M3.80436 17.8436C4.25636 18.0836 6.75136 14.4686 9.08036 11.2846C11.8354 7.51663 12.7784 6.79663 13.4324 5.48863C14.5524 3.24863 5.06336 10.4056 4.20836 14.2316C4.20836 14.2316 3.04336 17.4396 3.80436 17.8436Z" fill="#FEA524"/>
<path d="M56.2071 106.608C55.6131 106.608 55.5781 104.47 55.5781 102.274C55.5781 100.077 55.6131 98.6553 56.2071 98.6553C56.8001 98.6553 57.2821 100.435 57.2821 102.632C57.2821 104.828 56.8001 106.608 56.2071 106.608Z" fill="#75787B"/>
<path d="M1.36309 106.608C1.95609 106.608 1.99209 104.47 1.99209 102.274C1.99209 100.077 1.95609 98.6553 1.36309 98.6553C0.769086 98.6553 0.288086 100.435 0.288086 102.632C0.288086 104.828 0.769086 106.608 1.36309 106.608Z" fill="#75787B"/>
<path d="M51.474 134.944C52.129 133.759 53.428 130.344 53.864 128.967C54.049 128.379 54.432 127.757 54.261 128.994C54.016 130.766 53.157 134.047 52.789 134.944C52.422 135.841 51.417 137.591 50.894 138.171C50.37 138.751 49.841 139.223 48.888 139.726C48.207 139.928 47.067 140.081 47.313 139.76C47.512 139.502 48.722 138.275 49.143 137.864C50.063 136.964 51.065 135.685 51.474 134.944Z" fill="#F73843"/>
<path d="M6.29329 134.944C5.63829 133.759 4.33929 130.344 3.90329 128.967C3.71829 128.379 3.33529 127.757 3.50629 128.994C3.75129 130.766 4.61029 134.047 4.97829 134.944C5.34529 135.841 6.35029 137.591 6.87329 138.171C7.39729 138.751 7.92629 139.223 8.87929 139.726C9.56029 139.928 10.7003 140.081 10.4543 139.76C10.2553 139.502 9.04529 138.275 8.62429 137.864C7.70429 136.964 6.70229 135.685 6.29329 134.944Z" fill="#F73843"/>
<defs>
<linearGradient id="paint0_linear" x1="13.086" y1="33.4038" x2="44.888" y2="54.6288" gradientUnits="userSpaceOnUse">
<stop stop-color="#242324"/>
<stop offset="0.381" stop-color="#424242"/>
<stop offset="1" stop-color="#212021"/>
</linearGradient>
<linearGradient id="paint1_linear" x1="13.6592" y1="112.132" x2="43.7442" y2="131.03" gradientUnits="userSpaceOnUse">
<stop stop-color="#242324"/>
<stop offset="0.381" stop-color="#424242"/>
<stop offset="1" stop-color="#212021"/>
</linearGradient>
<linearGradient id="paint2_linear" x1="49.2432" y1="51.2426" x2="53.7452" y2="104.954" gradientUnits="userSpaceOnUse">
<stop stop-color="#242324"/>
<stop offset="0.381" stop-color="#424242"/>
<stop offset="1" stop-color="#212021"/>
</linearGradient>
<linearGradient id="paint3_linear" x1="8.15129" y1="51.2426" x2="3.64929" y2="104.954" gradientUnits="userSpaceOnUse">
<stop stop-color="#242324"/>
<stop offset="0.381" stop-color="#424242"/>
<stop offset="1" stop-color="#212021"/>
</linearGradient>
</defs>
</svg>
